<?xml version="1.0" encoding="UTF-8" standalone="no" ?>
<COLLADA version="1.4.1" xmlns="http://www.collada.org/2005/11/COLLADASchema">

  <asset>
    <contributor>
      <authoring_tool>ONSHAPE BY PTC INC, 1.195</authoring_tool>
    </contributor>
    <created>2025-03-19T16:48:11</created>
    <modified>2025-03-19T16:48:11</modified>
    <unit meter="1" name="meters"/>
    <up_axis>Z_UP</up_axis>
  </asset>

  <library_materials>
    <material id="ID9" name="ID9">
      <instance_effect url="#ID9-fx"/>
    </material>
  </library_materials>

  <library_effects>
    <effect id="ID9-fx" name="ID9">
      <profile_COMMON>
        <technique sid="COMMON">
          <lambert>
            <diffuse>
              <color sid="diffuse">0.615686 0.811765 0.92549 1</color>
            </diffuse>
            <transparent opaque="A_ONE">
              <color sid="transparent">1 1 1 1</color>
            </transparent>
            <transparency>
              <float sid="transparency">1</float>
            </transparency>
          </lambert>
        </technique>
        <extra>
          <technique profile="OTHER">
            <double_sided>1</double_sided>
          </technique>
        </extra>
      </profile_COMMON>
    </effect>
  </library_effects>

  <library_geometries>
    <geometry id="ID3">
      <mesh>
        <source id="ID4">
          <float_array count="144" id="ID5">-5 2 0 -5 -1 0.05 -5 2 0.05 -5 -1 0 -4 -1 0 -4 -1 0.05 -5 -1 0.05 -5 -1 0 -4 -1 0 -3 -7.38964e-16 0.05 -4 -1 0.05 -3 -4.54747e-16 2.13163e-17 -3 -7.38964e-16 0.05 3 3.53366e-16 0 3 3.53366e-16 0.05 -3 -4.54747e-16 2.13163e-17 3 3.53366e-16 0.05 4 -1 2.13163e-17 4 -1 0.05 3 3.53366e-16 0 4 -1 2.13163e-17 5 -1 0 5 -1 0.05 4 -1 0.05 5 -1 0 5 2 0 5 2 0.05 5 -1 0.05 5 2 0 -5 2 0.05 5 2 0.05 -5 2 0 -5 -1 0.05 -3 -7.38964e-16 0.05 -5 2 0.05 -4 -1 0.05 4 -1 0.05 5 -1 0.05 3 3.53366e-16 0.05 5 2 0.05 -3 -4.54747e-16 2.13163e-17 -4 -1 0 -5 -1 0 -5 2 0 5 2 0 3 3.53366e-16 0 5 -1 0 4 -1 2.13163e-17</float_array>
          <technique_common>
            <accessor count="48" source="#ID5" stride="3">
              <param name="X" type="float"/>
              <param name="Y" type="float"/>
              <param name="Z" type="float"/>
            </accessor>
          </technique_common>
        </source>
        <source id="ID6">
          <float_array count="144" id="ID7">-1 0 0 -1 0 0 -1 0 0 -1 0 0 -0 -1 -0 -0 -1 -0 -0 -1 -0 -0 -1 -0 0.707107 -0.707107 0 0.707107 -0.707107 0 0.707107 -0.707107 0 0.707107 -0.707107 0 1.22465e-16 -1 0 1.22465e-16 -1 0 1.22465e-16 -1 0 1.22465e-16 -1 0 -0.707107 -0.707107 0 -0.707107 -0.707107 0 -0.707107 -0.707107 0 -0.707107 -0.707107 0 0 -1 0 0 -1 0 0 -1 0 0 -1 0 1 0 0 1 0 0 1 0 0 1 0 0 0 1 0 0 1 0 0 1 0 0 1 0 0 0 1 0 0 1 0 0 1 0 0 1 0 0 1 0 0 1 0 0 1 0 0 1 -0 -0 -1 -0 -0 -1 -0 -0 -1 -0 -0 -1 -0 -0 -1 -0 -0 -1 -0 -0 -1 -0 -0 -1</float_array>
          <technique_common>
            <accessor count="48" source="#ID7" stride="3">
              <param name="X" type="float"/>
              <param name="Y" type="float"/>
              <param name="Z" type="float"/>
            </accessor>
          </technique_common>
        </source>
        <vertices id="ID8">
          <input semantic="POSITION" source="#ID4"/>
          <input semantic="NORMAL" source="#ID6"/>
        </vertices>
        <triangles count="28" material="ID9">
          <input offset="0" semantic="VERTEX" source="#ID8"/>
          <p>0 1 2 1 0 3 4 5 6 6 7 4 8 9 10 8 11 9 12 13 14 13 12 15 16 17 18 17 16 19 20 21 22 20 22 23 24 25 26 24 26 27 28 29 30 29 28 31 32 33 34 33 32 35 36 37 38 33 38 34 38 39 34 37 39 38 40 41 42 42 43 40 43 44 45 40 43 45 45 46 47 46 45 44</p>
        </triangles>
      </mesh>
    </geometry>
  </library_geometries>

  <library_visual_scenes>
    <visual_scene id="ID1">
      <node id="ID2">
        <instance_geometry url="#ID3">
          <bind_material>
            <technique_common>
              <instance_material symbol="ID9" target="#ID9"/>
            </technique_common>
          </bind_material>
        </instance_geometry>
      </node>
    </visual_scene>
  </library_visual_scenes>

  <scene>
    <instance_visual_scene url="#ID1"/>
  </scene>

  <library_nodes/>

</COLLADA>
