<?xml version="1.0" encoding="utf-8"?>
<COLLADA xmlns="http://www.collada.org/2005/11/COLLADASchema" version="1.4.1" xmlns:xsi="http://www.w3.org/2001/XMLSchema-instance">
  <asset>
    <contributor>
      <author>Blender User</author>
      <authoring_tool>Blender 4.3.2 commit date:2024-12-16, commit time:21:10, hash:32f5fdce0a0a</authoring_tool>
    </contributor>
    <created>2025-12-18T15:05:38</created>
    <modified>2025-12-18T15:05:38</modified>
    <unit name="meter" meter="1"/>
    <up_axis>Z_UP</up_axis>
  </asset>
  <library_images/>
  <library_geometries>
    <geometry id="_200mm-mesh" name="1200mm">
      <mesh>
        <source id="_200mm-mesh-positions">
          <float_array id="_200mm-mesh-positions-array" count="456">0.546737 0.2479948 10 0.6378599 0.2892221 10 0.4971056 0.3369191 10 0.5799567 0.3929671 10 0.4331735 0.4161689 10 0.5053692 0.4854252 10 0.3567798 0.4834646 10 0.4162431 0.5639368 10 0.2701222 0.5368699 10 0.3151426 0.626243 10 0.1756936 0.5748487 10 0.2049758 0.6705515 10 0.07621061 0.5963082 10 0.08891236 0.6955877 10 -0.02546477 0.6006312 10 -0.02970892 0.7006312 10 -0.1264076 0.5876933 10 -0.1474756 0.685537 10 -0.2237139 0.5578667 10 -0.2609996 0.6507393 10 -0.3145844 0.5120095 10 -0.3670151 0.5972392 10 -0.3964049 0.4514408 10 -0.4624724 0.5265757 10 -0.4668215 0.3779032 10 -0.5446251 0.4407818 10 -0.5238085 0.2935121 10 -0.6111099 0.3423256 10 -0.5657265 0.2006953 10 -0.6600142 0.2340393 10 -0.5913696 0.1021232 10 -0.6899312 0.1190385 10 -0.6000001 6.31246e-4 10 -0.7 6.31246e-4 10 -0.5913696 -0.1008607 10 -0.6899312 -0.117776 10 -0.5657265 -0.1994329 10 -0.6600142 -0.2327769 10 -0.5238085 -0.2922496 10 -0.6111099 -0.3410631 10 -0.4668215 -0.3766407 10 -0.5446251 -0.4395194 10 -0.3964049 -0.4501783 10 -0.4624724 -0.5253133 10 -0.3145844 -0.510747 10 -0.3670151 -0.5959767 10 -0.2237139 -0.5566043 10 -0.2609996 -0.6494768 10 -0.1264076 -0.5864309 10 -0.1474756 -0.6842746 10 -0.02546477 -0.5993687 10 -0.02970892 -0.6993687 10 0.07621061 -0.5950457 10 0.08891236 -0.6943252 10 0.1756936 -0.5735862 10 0.2049758 -0.6692891 10 0.2701222 -0.5356074 10 0.3151426 -0.6249805 10 0.3567798 -0.4822021 10 0.4162431 -0.5626743 10 0.4331735 -0.4149065 10 0.5053692 -0.4841628 10 0.4971056 -0.3356567 10 0.5799567 -0.3917046 10 0.546737 -0.2467324 10 0.6378599 -0.2879596 10 0.5806397 -0.1506919 10 0.677413 -0.1759124 10 0.5978384 -0.05029815 10 0.6974782 -0.05878639 10 0.5999999 6.31246e-4 10 0.6999999 6.31246e-4 10 0.5978384 0.05156064 10 0.6974782 0.06004887 10 0.5806397 0.1519544 10 0.677413 0.1771749 10 0.07621061 0.5963082 0 0.08891236 0.6955877 0 0.1756936 0.5748487 0 0.2049758 0.6705515 0 0.2701222 0.5368699 0 0.3151426 0.626243 0 0.3567798 0.4834646 0 0.4162431 0.5639368 0 0.4331735 0.4161689 0 0.5053692 0.4854252 0 0.4971056 0.3369191 0 0.5799567 0.3929671 0 0.546737 0.2479948 0 0.6378599 0.2892221 0 0.5806397 0.1519544 0 0.677413 0.1771749 0 0.5978384 0.05156064 0 0.6974782 0.06004887 0 0.5999999 6.31246e-4 0 0.6999999 6.31246e-4 0 0.5978384 -0.05029815 0 0.6974782 -0.05878639 0 0.5806397 -0.1506919 0 0.677413 -0.1759124 0 0.546737 -0.2467324 0 0.6378599 -0.2879596 0 0.4971056 -0.3356567 0 0.5799567 -0.3917046 0 0.4331735 -0.4149065 0 0.5053692 -0.4841628 0 0.3567798 -0.4822021 0 0.4162431 -0.5626743 0 0.2701222 -0.5356074 0 0.3151426 -0.6249805 0 0.1756936 -0.5735862 0 0.2049758 -0.6692891 0 0.07621061 -0.5950457 0 0.08891236 -0.6943252 0 -0.02546477 -0.5993687 0 -0.02970892 -0.6993687 0 -0.1264076 -0.5864309 0 -0.1474756 -0.6842746 0 -0.2237139 -0.5566043 0 -0.2609996 -0.6494768 0 -0.3145844 -0.510747 0 -0.3670151 -0.5959767 0 -0.3964049 -0.4501783 0 -0.4624724 -0.5253133 0 -0.4668215 -0.3766407 0 -0.5446251 -0.4395194 0 -0.5238085 -0.2922496 0 -0.6111099 -0.3410631 0 -0.5657265 -0.1994329 0 -0.6600142 -0.2327769 0 -0.5913696 -0.1008607 0 -0.6899312 -0.117776 0 -0.6000001 6.31246e-4 0 -0.7 6.31246e-4 0 -0.5913696 0.1021232 0 -0.6899312 0.1190385 0 -0.5657265 0.2006953 0 -0.6600142 0.2340393 0 -0.5238085 0.2935121 0 -0.6111099 0.3423256 0 -0.4668215 0.3779032 0 -0.5446251 0.4407818 0 -0.3964049 0.4514408 0 -0.4624724 0.5265757 0 -0.3145844 0.5120095 0 -0.3670151 0.5972392 0 -0.2237139 0.5578667 0 -0.2609996 0.6507393 0 -0.1264076 0.5876933 0 -0.1474756 0.685537 0 -0.02546477 0.6006312 0 -0.02970892 0.7006312 0</float_array>
          <technique_common>
            <accessor source="#_200mm-mesh-positions-array" count="152" stride="3">
              <param name="X" type="float"/>
              <param name="Y" type="float"/>
              <param name="Z" type="float"/>
            </accessor>
          </technique_common>
        </source>
        <source id="_200mm-mesh-normals">
          <float_array id="_200mm-mesh-normals-array" count="912">0 0 1 0 0 1 0 0 1 0 0 1 0 0 1 0 0 1 0 0 1 0 0 1 0 0 1 0 0 1 0 0 1 0 0 1 0 0 1 0 0 1 0 0 1 0 0 1 0 0 1 0 0 1 0 0 1 0 0 1 0 0 1 0 0 1 0 0 1 0 0 1 0 0 1 0 0 1 0 0 1 0 0 1 0 0 1 0 0 1 0 0 1 0 0 1 0 0 1 0 0 1 0 0 1 0 0 1 0 0 1 0 0 1 0 0 1 0 0 1 0 0 1 0 0 1 0 0 1 0 0 1 0 0 1 0 0 1 0 0 1 0 0 1 0 0 1 0 0 1 0 0 1 0 0 1 0 0 1 0 0 1 0 0 1 0 0 1 0 0 1 0 0 1 0 0 1 0 0 1 0 0 1 0 0 1 0 0 1 0 0 1 0 0 1 0 0 1 0 0 1 0 0 1 0 0 1 0 0 1 0 0 1 0 0 1 0 0 1 0 0 1 0 0 1 0 0 1 0 0 -1 0 0 -1 0 0 -1 0 0 -1 0 0 -1 0 0 -1 0 0 -1 0 0 -1 0 0 -1 0 0 -1 0 0 -1 0 0 -1 0 0 -1 0 0 -1 0 0 -1 0 0 -1 0 0 -1 0 0 -1 0 0 -1 0 0 -1 0 0 -1 0 0 -1 0 0 -1 0 0 -1 0 0 -1 0 0 -1 0 0 -1 0 0 -1 0 0 -1 0 0 -1 0 0 -1 0 0 -1 0 0 -1 0 0 -1 0 0 -1 0 0 -1 0 0 -1 0 0 -1 0 0 -1 0 0 -1 0 0 -1 0 0 -1 0 0 -1 0 0 -1 0 0 -1 0 0 -1 0 0 -1 0 0 -1 0 0 -1 0 0 -1 0 0 -1 0 0 -1 0 0 -1 0 0 -1 0 0 -1 0 0 -1 0 0 -1 0 0 -1 0 0 -1 0 0 -1 0 0 -1 0 0 -1 0 0 -1 0 0 -1 0 0 -1 0 0 -1 0 0 -1 0 0 -1 0 0 -1 0 0 -1 0 0 -1 0 0 -1 0 0 -1 0 0 -1 0 0 -1 0 0 -1 0.9991006 0.0424019 0 0.9991006 -0.0424019 0 0.9991006 -0.0424019 0 0.9856413 -0.1688529 0 0.9856413 -0.1688529 0 0.9429718 -0.3328728 0 0.9429718 -0.3328728 0 0.8732013 -0.4873598 0 0.8732013 -0.4873598 0 0.7783123 -0.6278774 0 0.7783123 -0.6278774 0 0.6610099 -0.7503772 0 0.6610099 -0.7503772 0 0.5246502 -0.8513179 0 0.5246502 -0.8513179 0 0.3731457 -0.9277728 0 0.3731457 -0.9277728 0 0.2108605 -0.9775162 0 0.2108605 -0.9775162 0 0.04247981 -0.9990973 0 0.04247981 -0.9990973 0 -0.1271301 -0.9918861 0 -0.1271301 -0.9918861 0 -0.2930644 -0.9560927 0 -0.2930644 -0.9560927 0 -0.4505273 -0.8927627 0 -0.4505273 -0.8927627 0 -0.5949796 -0.8037409 0 -0.5949796 -0.8037409 0 -0.7222676 -0.6916137 0 -0.7222676 -0.6916137 0 -0.8287442 -0.5596277 0 -0.8287442 -0.5596277 0 -0.9113677 -0.4115933 0 -0.9113677 -0.4115933 0 -0.9677882 -0.2517656 0 -0.9677882 -0.2517656 0 -0.996404 -0.08472979 0 -0.996404 -0.08472979 0 -0.996404 0.08472985 0 -0.996404 0.08472985 0 -0.9677882 0.2517656 0 -0.9677882 0.2517656 0 -0.9113677 0.411593 0 -0.9113677 0.411593 0 -0.8287441 0.5596278 0 -0.8287441 0.5596278 0 -0.7222673 0.691614 0 -0.7222673 0.691614 0 -0.59498 0.8037406 0 -0.59498 0.8037406 0 -0.4505273 0.8927627 0 -0.4505273 0.8927627 0 -0.2930644 0.9560927 0 -0.2930644 0.9560927 0 -0.1271301 0.9918861 0 -0.1271301 0.9918861 0 0.04247927 0.9990974 0 0.04247927 0.9990974 0 0.2108615 0.977516 0 0.2108615 0.977516 0 0.3731453 0.9277729 0 0.3731453 0.9277729 0 0.5246502 0.8513179 0 0.5246502 0.8513179 0 0.6610102 0.7503769 0 0.6610102 0.7503769 0 0.7783123 0.6278774 0 0.7783123 0.6278774 0 0.8732011 0.4873599 0 0.8732011 0.4873599 0 0.9429717 0.3328728 0 0.9429717 0.3328728 0 0.9856413 0.1688529 0 0.9856413 0.1688529 0 0.9991006 0.0424019 0 0.9964039 -0.08473062 0 0.9964039 -0.08473062 0 0.9677882 -0.2517659 0 0.9677882 -0.2517659 0 0.9113678 -0.4115928 0 0.9113678 -0.4115928 0 0.8287439 -0.5596281 0 0.8287439 -0.5596281 0 0.7222675 -0.6916139 0 0.7222675 -0.6916139 0 0.59498 -0.8037405 0 0.59498 -0.8037405 0 0.450527 -0.8927628 0 0.450527 -0.8927628 0 0.293064 -0.9560928 0 0.293064 -0.9560928 0 0.1271306 -0.991886 0 0.1271306 -0.991886 0 -0.04247874 -0.9990974 0 -0.04247874 -0.9990974 0 -0.2108605 -0.9775162 0 -0.2108605 -0.9775162 0 -0.3731466 -0.9277724 0 -0.3731466 -0.9277724 0 -0.5246496 -0.8513182 0 -0.5246496 -0.8513182 0 -0.6610109 -0.7503764 0 -0.6610109 -0.7503764 0 -0.7783125 -0.6278771 0 -0.7783125 -0.6278771 0 -0.873201 -0.4873601 0 -0.873201 -0.4873601 0 -0.9429717 -0.3328731 0 -0.9429717 -0.3328731 0 -0.9856413 -0.168853 0 -0.9856413 -0.168853 0 -0.9991006 -0.04240292 0 -0.9991006 -0.04240292 0 -0.9991006 0.04240292 0 -0.9991006 0.04240292 0 -0.9856413 0.168853 0 -0.9856413 0.168853 0 -0.9429716 0.3328732 0 -0.9429716 0.3328732 0 -0.8732012 0.48736 0 -0.8732012 0.48736 0 -0.7783124 0.6278772 0 -0.7783124 0.6278772 0 -0.6610105 0.7503767 0 -0.6610105 0.7503767 0 -0.52465 0.8513181 0 -0.52465 0.8513181 0 -0.3731461 0.9277725 0 -0.3731461 0.9277725 0 -0.2108605 0.9775162 0 -0.2108605 0.9775162 0 -0.04247933 0.9990974 0 -0.04247933 0.9990974 0 0.12713 0.991886 0 0.12713 0.991886 0 0.293064 0.9560928 0 0.293064 0.9560928 0 0.4505279 0.8927623 0 0.4505279 0.8927623 0 0.5949793 0.8037411 0 0.5949793 0.8037411 0 0.7222677 0.6916136 0 0.7222677 0.6916136 0 0.8287438 0.5596282 0 0.8287438 0.5596282 0 0.9113678 0.4115928 0 0.9113678 0.4115928 0 0.9677882 0.2517657 0 0.9677882 0.2517657 0 0.9964039 0.08473062 0 0.9964039 0.08473062 0</float_array>
          <technique_common>
            <accessor source="#_200mm-mesh-normals-array" count="304" stride="3">
              <param name="X" type="float"/>
              <param name="Y" type="float"/>
              <param name="Z" type="float"/>
            </accessor>
          </technique_common>
        </source>
        <vertices id="_200mm-mesh-vertices">
          <input semantic="POSITION" source="#_200mm-mesh-positions"/>
        </vertices>
        <triangles count="304">
          <input semantic="VERTEX" source="#_200mm-mesh-vertices" offset="0"/>
          <input semantic="NORMAL" source="#_200mm-mesh-normals" offset="1"/>
          <p>0 0 1 0 2 0 2 1 1 1 3 1 2 2 3 2 4 2 4 3 3 3 5 3 4 4 5 4 6 4 6 5 5 5 7 5 6 6 7 6 8 6 8 7 7 7 9 7 8 8 9 8 10 8 10 9 9 9 11 9 10 10 11 10 12 10 12 11 11 11 13 11 12 12 13 12 14 12 14 13 13 13 15 13 14 14 15 14 16 14 16 15 15 15 17 15 16 16 17 16 18 16 18 17 17 17 19 17 18 18 19 18 20 18 20 19 19 19 21 19 20 20 21 20 22 20 22 21 21 21 23 21 22 22 23 22 24 22 24 23 23 23 25 23 24 24 25 24 26 24 26 25 25 25 27 25 26 26 27 26 28 26 28 27 27 27 29 27 28 28 29 28 30 28 30 29 29 29 31 29 30 30 31 30 32 30 32 31 31 31 33 31 32 32 33 32 34 32 34 33 33 33 35 33 34 34 35 34 36 34 36 35 35 35 37 35 36 36 37 36 38 36 38 37 37 37 39 37 38 38 39 38 40 38 40 39 39 39 41 39 40 40 41 40 42 40 42 41 41 41 43 41 42 42 43 42 44 42 44 43 43 43 45 43 44 44 45 44 46 44 46 45 45 45 47 45 46 46 47 46 48 46 48 47 47 47 49 47 48 48 49 48 50 48 50 49 49 49 51 49 50 50 51 50 52 50 52 51 51 51 53 51 52 52 53 52 54 52 54 53 53 53 55 53 54 54 55 54 56 54 56 55 55 55 57 55 56 56 57 56 58 56 58 57 57 57 59 57 58 58 59 58 60 58 60 59 59 59 61 59 60 60 61 60 62 60 62 61 61 61 63 61 62 62 63 62 64 62 64 63 63 63 65 63 64 64 65 64 66 64 66 65 65 65 67 65 66 66 67 66 68 66 68 67 67 67 69 67 68 68 69 68 70 68 70 69 69 69 71 69 70 70 71 70 72 70 72 71 71 71 73 71 72 72 73 72 74 72 74 73 73 73 75 73 74 74 75 74 0 74 0 75 75 75 1 75 76 76 77 76 78 76 78 77 77 77 79 77 78 78 79 78 80 78 80 79 79 79 81 79 80 80 81 80 82 80 82 81 81 81 83 81 82 82 83 82 84 82 84 83 83 83 85 83 84 84 85 84 86 84 86 85 85 85 87 85 86 86 87 86 88 86 88 87 87 87 89 87 88 88 89 88 90 88 90 89 89 89 91 89 90 90 91 90 92 90 92 91 91 91 93 91 92 92 93 92 94 92 94 93 93 93 95 93 94 94 95 94 96 94 96 95 95 95 97 95 96 96 97 96 98 96 98 97 97 97 99 97 98 98 99 98 100 98 100 99 99 99 101 99 100 100 101 100 102 100 102 101 101 101 103 101 102 102 103 102 104 102 104 103 103 103 105 103 104 104 105 104 106 104 106 105 105 105 107 105 106 106 107 106 108 106 108 107 107 107 109 107 108 108 109 108 110 108 110 109 109 109 111 109 110 110 111 110 112 110 112 111 111 111 113 111 112 112 113 112 114 112 114 113 113 113 115 113 114 114 115 114 116 114 116 115 115 115 117 115 116 116 117 116 118 116 118 117 117 117 119 117 118 118 119 118 120 118 120 119 119 119 121 119 120 120 121 120 122 120 122 121 121 121 123 121 122 122 123 122 124 122 124 123 123 123 125 123 124 124 125 124 126 124 126 125 125 125 127 125 126 126 127 126 128 126 128 127 127 127 129 127 128 128 129 128 130 128 130 129 129 129 131 129 130 130 131 130 132 130 132 131 131 131 133 131 132 132 133 132 134 132 134 133 133 133 135 133 134 134 135 134 136 134 136 135 135 135 137 135 136 136 137 136 138 136 138 137 137 137 139 137 138 138 139 138 140 138 140 139 139 139 141 139 140 140 141 140 142 140 142 141 141 141 143 141 142 142 143 142 144 142 144 143 143 143 145 143 144 144 145 144 146 144 146 145 145 145 147 145 146 146 147 146 148 146 148 147 147 147 149 147 148 148 149 148 150 148 150 149 149 149 151 149 150 150 151 150 76 150 76 151 151 151 77 151 73 152 71 152 95 152 95 153 71 153 97 153 71 154 69 154 97 154 97 155 69 155 67 155 97 156 67 156 99 156 99 157 67 157 65 157 99 158 65 158 101 158 101 159 65 159 63 159 101 160 63 160 103 160 103 161 63 161 61 161 103 162 61 162 105 162 105 163 61 163 59 163 105 164 59 164 107 164 107 165 59 165 57 165 107 166 57 166 109 166 109 167 57 167 55 167 109 168 55 168 111 168 111 169 55 169 53 169 111 170 53 170 113 170 113 171 53 171 51 171 113 172 51 172 115 172 115 173 51 173 49 173 115 174 49 174 117 174 117 175 49 175 47 175 117 176 47 176 119 176 119 177 47 177 45 177 119 178 45 178 121 178 121 179 45 179 43 179 121 180 43 180 123 180 123 181 43 181 41 181 123 182 41 182 125 182 125 183 41 183 39 183 125 184 39 184 127 184 127 185 39 185 37 185 127 186 37 186 129 186 129 187 37 187 35 187 129 188 35 188 131 188 131 189 35 189 33 189 131 190 33 190 133 190 133 191 33 191 31 191 133 192 31 192 135 192 135 193 31 193 29 193 135 194 29 194 137 194 137 195 29 195 27 195 137 196 27 196 139 196 139 197 27 197 25 197 139 198 25 198 141 198 141 199 25 199 23 199 141 200 23 200 143 200 143 201 23 201 21 201 143 202 21 202 145 202 145 203 21 203 19 203 145 204 19 204 147 204 147 205 19 205 17 205 147 206 17 206 149 206 149 207 17 207 15 207 149 208 15 208 151 208 151 209 15 209 13 209 151 210 13 210 77 210 77 211 13 211 11 211 77 212 11 212 79 212 79 213 11 213 9 213 79 214 9 214 81 214 81 215 9 215 7 215 81 216 7 216 83 216 83 217 7 217 5 217 83 218 5 218 85 218 85 219 5 219 3 219 85 220 3 220 87 220 87 221 3 221 1 221 87 222 1 222 89 222 89 223 1 223 75 223 89 224 75 224 91 224 91 225 75 225 73 225 91 226 73 226 93 226 93 227 73 227 95 227 32 228 132 228 30 228 30 229 132 229 134 229 30 230 134 230 28 230 28 231 134 231 136 231 28 232 136 232 26 232 26 233 136 233 138 233 26 234 138 234 24 234 24 235 138 235 140 235 24 236 140 236 22 236 22 237 140 237 142 237 22 238 142 238 20 238 20 239 142 239 144 239 20 240 144 240 18 240 18 241 144 241 146 241 18 242 146 242 16 242 16 243 146 243 148 243 16 244 148 244 14 244 14 245 148 245 150 245 14 246 150 246 12 246 12 247 150 247 76 247 12 248 76 248 10 248 10 249 76 249 78 249 10 250 78 250 8 250 8 251 78 251 80 251 8 252 80 252 6 252 6 253 80 253 82 253 6 254 82 254 4 254 4 255 82 255 84 255 4 256 84 256 2 256 2 257 84 257 86 257 2 258 86 258 0 258 0 259 86 259 88 259 0 260 88 260 74 260 74 261 88 261 90 261 74 262 90 262 72 262 72 263 90 263 92 263 72 264 92 264 70 264 70 265 92 265 94 265 70 266 94 266 68 266 68 267 94 267 96 267 68 268 96 268 66 268 66 269 96 269 98 269 66 270 98 270 64 270 64 271 98 271 100 271 64 272 100 272 62 272 62 273 100 273 102 273 62 274 102 274 60 274 60 275 102 275 104 275 60 276 104 276 58 276 58 277 104 277 106 277 58 278 106 278 56 278 56 279 106 279 108 279 56 280 108 280 54 280 54 281 108 281 110 281 54 282 110 282 52 282 52 283 110 283 112 283 52 284 112 284 50 284 50 285 112 285 114 285 50 286 114 286 48 286 48 287 114 287 116 287 48 288 116 288 46 288 46 289 116 289 118 289 46 290 118 290 44 290 44 291 118 291 120 291 44 292 120 292 42 292 42 293 120 293 122 293 42 294 122 294 40 294 40 295 122 295 124 295 40 296 124 296 38 296 38 297 124 297 126 297 38 298 126 298 36 298 36 299 126 299 128 299 36 300 128 300 34 300 34 301 128 301 130 301 34 302 130 302 32 302 32 303 130 303 132 303</p>
        </triangles>
      </mesh>
    </geometry>
  </library_geometries>
  <library_controllers/>
  <library_visual_scenes>
    <visual_scene id="Scene" name="Scene">
      <node id="_200mm" name="1200mm" type="NODE">
        <matrix sid="transform">1 0 0 0 0 1 0 0 0 0 1 0 0 0 0 1</matrix>
        <instance_geometry url="#_200mm-mesh" name="1200mm"/>
      </node>
    </visual_scene>
  </library_visual_scenes>
  <scene>
    <instance_visual_scene url="#Scene"/>
  </scene>
</COLLADA>