<?xml version="1.0" encoding="UTF-8" standalone="no" ?>
<COLLADA version="1.4.1" xmlns="http://www.collada.org/2005/11/COLLADASchema">

  <asset>
    <contributor>
      <authoring_tool>ONSHAPE BY PTC INC, 1.192</authoring_tool>
    </contributor>
    <created>2025-01-29T12:43:01</created>
    <modified>2025-01-29T12:43:01</modified>
    <unit meter="1" name="meters"/>
    <up_axis>Z_UP</up_axis>
  </asset>

  <library_materials>
    <material id="ID9" name="ID9">
      <instance_effect url="#ID9-fx"/>
    </material>
  </library_materials>

  <library_effects>
    <effect id="ID9-fx" name="ID9">
      <profile_COMMON>
        <technique sid="COMMON">
          <lambert>
            <diffuse>
              <color sid="diffuse">0.615686 0.811765 0.92549 1</color>
            </diffuse>
            <transparent opaque="A_ONE">
              <color sid="transparent">1 1 1 1</color>
            </transparent>
            <transparency>
              <float sid="transparency">1</float>
            </transparency>
          </lambert>
        </technique>
        <extra>
          <technique profile="OTHER">
            <double_sided>1</double_sided>
          </technique>
        </extra>
      </profile_COMMON>
    </effect>
  </library_effects>

  <library_geometries>
    <geometry id="ID3">
      <mesh>
        <source id="ID4">
          <float_array count="324" id="ID5">-4.99325 -0.175 10 -5 -9.825 10 5 -9.825 10 -4.99325 0 10 -5 0 10 5 -0.175 10 2.5 0 -6.82121e-16 3.42059 0 0.920591 3.42059 -0.175 0.920591 5 -0.175 2.5 5 -10 2.5 2.5 -10 -4.54747e-16 5 -9.825 2.5082 5 -0.175 10 5 -9.825 10 5 -10 2.5 5 -0.175 2.5 5 -10 2.5082 3.42059 0 0.920591 2.5 0 -6.82121e-16 2.49663 0 0 -5 0 10 -4.99325 0 0 -5 0 0 -4.99325 0 10 -5 0 0 -5 -9.825 10 -5 0 10 -5 -9.825 -1.81899e-15 -5.01116 -9.825 0 -5 -9.825 -1.81899e-15 -5.01116 -10.025 0 -4.99325 0 0 -4.99325 0.025 0 2.49663 0.025 0 2.49663 0 0 2.48513 -10 0 2.5 0 -6.82121e-16 2.5 -10 -4.54747e-16 2.48513 -10.025 0 -5 0 0 5 -10 2.5 2.48513 -10 0 2.5 -10 -4.54747e-16 5 -10 2.5082 -5.01116 -10.025 10.0109 -5.01116 -10.025 0 2.48513 -10.025 0 5.0064 -10.025 2.51458 5.0064 -10.025 10.0109 -5.01116 -9.825 0 -5 -9.825 10 -5 -9.825 -1.81899e-15 -5.01116 -9.825 10.0109 5.0064 -9.825 10.0109 5.0064 -9.825 2.51458 5 -9.825 10 5 -9.825 2.5082 5.0064 -9.825 10.0109 5.0064 -10.025 2.51458 5.0064 -9.825 2.51458 5.0064 -10.025 10.0109 5 -10 2.5082 5.0064 -10.025 2.51458 2.48513 -10.025 0 5 -9.825 2.5082 5.0064 -9.825 2.51458 2.48513 -10 0 -5.01116 -9.825 0 -5.01116 -10.025 10.0109 -5.01116 -9.825 10.0109 -5.01116 -10.025 0 -5.01116 -9.825 10.0109 5.0064 -10.025 10.0109 5.0064 -9.825 10.0109 -5.01116 -10.025 10.0109 -4.99325 0.025 10.0092 5.00388 0.025 10.0092 5.0145 0.025 2.50868 2.49663 0.025 0 -4.99325 0.025 0 5.0145 -0.175 2.50868 5 -0.175 10 5 -0.175 2.5 -4.99325 -0.175 10.0092 5.00388 -0.175 10.0092 3.42059 -0.175 0.920591 -4.99325 -0.175 10 -4.99325 0 10 -4.99325 -0.175 10 -4.99325 -0.175 10.0092 -4.99325 0.025 10.0092 -4.99325 0.025 0 -4.99325 0 0 3.42059 0 0.920591 5.0145 0.025 2.50868 5.0145 -0.175 2.50868 2.49663 0.025 0 2.49663 0 0 3.42059 -0.175 0.920591 5.0145 0.025 2.50868 5.00388 0.025 10.0092 5.00388 -0.175 10.0092 5.0145 -0.175 2.50868 5.00388 0.025 10.0092 -4.99325 0.025 10.0092 -4.99325 -0.175 10.0092 5.00388 -0.175 10.0092</float_array>
          <technique_common>
            <accessor count="108" source="#ID5" stride="3">
              <param name="X" type="float"/>
              <param name="Y" type="float"/>
              <param name="Z" type="float"/>
            </accessor>
          </technique_common>
        </source>
        <source id="ID6">
          <float_array count="324" id="ID7">0 0 1 0 0 1 0 0 1 0 0 1 0 0 1 0 0 1 0.707107 0 -0.707107 0.707107 0 -0.707107 0.707107 0 -0.707107 0.707107 0 -0.707107 0.707107 0 -0.707107 0.707107 0 -0.707107 1 0 1.18424e-16 1 0 1.18424e-16 1 0 1.18424e-16 1 0 1.18424e-16 1 0 1.18424e-16 1 0 1.18424e-16 0 1 0 0 1 0 0 1 0 0 1 0 0 1 0 0 1 0 0 1 0 -1 0 -1.77636e-16 -1 0 -1.77636e-16 -1 0 -1.77636e-16 -1 0 -1.77636e-16 0 0 -1 0 0 -1 0 0 -1 0 0 -1 0 0 -1 0 0 -1 0 0 -1 0 0 -1 0 0 -1 0 0 -1 0 0 -1 0 0 -1 0 -1 0 0 -1 0 0 -1 0 0 -1 0 0 -1 0 0 -1 0 0 -1 0 0 -1 0 0 -1 0 0 1 0 0 1 0 0 1 0 0 1 0 0 1 0 0 1 0 0 1 0 0 1 0 1 0 0 1 0 0 1 0 0 1 0 0 0.706167 0 -0.708046 0.706167 0 -0.708046 0.706167 0 -0.708046 0.706167 0 -0.708046 0.706167 0 -0.708046 0.706167 0 -0.708046 -1 0 0 -1 0 0 -1 0 0 -1 0 0 0 0 1 0 0 1 0 0 1 0 0 1 0 1 0 0 1 0 0 1 0 0 1 0 0 1 0 -0 -1 -0 -0 -1 -0 -0 -1 -0 -0 -1 -0 -0 -1 -0 -0 -1 -0 -0 -1 -0 -1 -0 -0 -1 -0 -0 -1 -0 -0 -1 -0 -0 -1 -0 -0 -1 -0 -0 0.705813 0 -0.708399 0.705813 0 -0.708399 0.705813 0 -0.708399 0.705813 0 -0.708399 0.705813 0 -0.708399 0.705813 0 -0.708399 0.999999 0 0.00141643 0.999999 0 0.00141643 0.999999 0 0.00141643 0.999999 0 0.00141643 0 0 1 0 0 1 0 0 1 0 0 1</float_array>
          <technique_common>
            <accessor count="108" source="#ID7" stride="3">
              <param name="X" type="float"/>
              <param name="Y" type="float"/>
              <param name="Z" type="float"/>
            </accessor>
          </technique_common>
        </source>
        <vertices id="ID8">
          <input semantic="POSITION" source="#ID4"/>
          <input semantic="NORMAL" source="#ID6"/>
        </vertices>
        <triangles count="68" material="ID9">
          <input offset="0" semantic="VERTEX" source="#ID8"/>
          <p>0 1 2 0 3 4 0 4 1 0 2 5 6 7 8 9 10 8 10 11 8 11 6 8 12 13 14 15 16 12 16 13 12 12 17 15 18 19 20 21 22 23 21 24 22 25 26 27 26 25 28 29 30 31 32 33 34 34 35 32 36 37 38 36 35 37 36 39 30 39 31 30 35 30 32 30 40 32 35 36 30 41 42 43 42 41 44 45 46 47 47 48 45 45 48 49 50 51 52 53 54 51 55 56 54 56 55 57 50 53 51 54 56 51 58 59 60 59 58 61 62 63 64 62 65 66 62 66 63 62 64 67 68 69 70 69 68 71 72 73 74 73 72 75 76 77 78 78 79 76 76 79 80 81 82 83 84 82 85 81 83 86 84 87 82 81 85 82 88 89 90 91 92 93 88 90 91 93 88 91 94 95 96 97 94 98 97 95 94 96 99 94 100 101 102 102 103 100 104 105 106 106 107 104</p>
        </triangles>
      </mesh>
    </geometry>
    <geometry id="ID10">
      <mesh>
        <source id="ID11">
          <float_array count="90" id="ID12">2.41716 -0.175 0.2 -4.8 -0.175 0.2 -4.8 -0.175 9.8 4.8 -0.175 2.58284 4.8 -0.175 9.8 -4.8 -9.825 9.8 2.41716 -9.825 0.2 4.8 -9.825 2.58284 -4.8 -9.825 0.2 4.8 -9.825 9.8 -4.8 -0.175 0.2 -4.8 -9.825 9.8 -4.8 -0.175 9.8 -4.8 -9.825 0.2 2.41716 -0.175 0.2 -4.8 -9.825 0.2 -4.8 -0.175 0.2 2.41716 -9.825 0.2 4.8 -0.175 2.58284 2.41716 -9.825 0.2 2.41716 -0.175 0.2 4.8 -9.825 2.58284 4.8 -0.175 9.8 4.8 -9.825 2.58284 4.8 -0.175 2.58284 4.8 -9.825 9.8 -4.8 -0.175 9.8 4.8 -9.825 9.8 4.8 -0.175 9.8 -4.8 -9.825 9.8</float_array>
          <technique_common>
            <accessor count="30" source="#ID12" stride="3">
              <param name="X" type="float"/>
              <param name="Y" type="float"/>
              <param name="Z" type="float"/>
            </accessor>
          </technique_common>
        </source>
        <source id="ID13">
          <float_array count="90" id="ID14">-0 -1 -0 -0 -1 -0 -0 -1 -0 -0 -1 -0 -0 -1 -0 0 1 0 0 1 0 0 1 0 0 1 0 0 1 0 1 0 1.85037e-16 1 0 1.85037e-16 1 0 1.85037e-16 1 0 1.85037e-16 0 0 1 0 0 1 0 0 1 0 0 1 -0.707107 0 0.707107 -0.707107 0 0.707107 -0.707107 0 0.707107 -0.707107 0 0.707107 -1 -0 -1.23065e-16 -1 -0 -1.23065e-16 -1 -0 -1.23065e-16 -1 -0 -1.23065e-16 -0 -0 -1 -0 -0 -1 -0 -0 -1 -0 -0 -1</float_array>
          <technique_common>
            <accessor count="30" source="#ID14" stride="3">
              <param name="X" type="float"/>
              <param name="Y" type="float"/>
              <param name="Z" type="float"/>
            </accessor>
          </technique_common>
        </source>
        <vertices id="ID15">
          <input semantic="POSITION" source="#ID11"/>
          <input semantic="NORMAL" source="#ID13"/>
        </vertices>
        <triangles count="16" material="ID9">
          <input offset="0" semantic="VERTEX" source="#ID15"/>
          <p>0 2 1 2 0 3 3 4 2 5 7 6 5 6 8 9 7 5 10 12 11 11 13 10 14 16 15 15 17 14 18 20 19 19 21 18 22 24 23 23 25 22 26 28 27 27 29 26</p>
        </triangles>
      </mesh>
    </geometry>
  </library_geometries>

  <library_visual_scenes>
    <visual_scene id="ID1">
      <node id="ID2">
        <instance_geometry url="#ID3">
          <bind_material>
            <technique_common>
              <instance_material symbol="ID9" target="#ID9"/>
            </technique_common>
          </bind_material>
        </instance_geometry>
        <instance_geometry url="#ID10">
          <bind_material>
            <technique_common>
              <instance_material symbol="ID9" target="#ID9"/>
            </technique_common>
          </bind_material>
        </instance_geometry>
      </node>
    </visual_scene>
  </library_visual_scenes>

  <scene>
    <instance_visual_scene url="#ID1"/>
  </scene>

  <library_nodes/>

</COLLADA>
