<?xml version="1.0" encoding="utf-8"?>
<COLLADA xmlns="http://www.collada.org/2005/11/COLLADASchema" version="1.4.1" xmlns:xsi="http://www.w3.org/2001/XMLSchema-instance">
  <asset>
    <contributor>
      <author>Blender User</author>
      <authoring_tool>Blender 4.3.2 commit date:2024-12-16, commit time:21:10, hash:32f5fdce0a0a</authoring_tool>
    </contributor>
    <created>2026-05-08T12:30:08</created>
    <modified>2026-05-08T12:30:08</modified>
    <unit name="meter" meter="1"/>
    <up_axis>Z_UP</up_axis>
  </asset>
  <library_images/>
  <library_geometries>
    <geometry id="五楼仿真-mesh" name="五楼仿真">
      <mesh>
        <source id="五楼仿真-mesh-positions">
          <float_array id="五楼仿真-mesh-positions-array" count="288">25500 7400 4000 28500 10000 4000 33500 10000 4000 10500 2500 4000 10500 32000 4000 12500 32000 4000 12500 35000 4000 12500 2500 4000 15500 2500 4000 15500 500 4000 28500 35000 4000 25500 30000 4000 24500 35000 4000 33500 500 4000 30500 500 4000 30500 6200 4000 19000 6200 4000 19000 7400 4000 500 35000 4000 5000 32000 4000 500 500 4000 5000 2500 4000 12500 30000 4000 24500 32000 4000 13000 35500 4500 13000 32500 4500 13000 35500 0 13000 32500 0 0 35500 4500 0 35500 0 0 0 4500 0 0 0 16000 0 4500 16000 0 0 16000 3000 4500 16000 3000 0 13000 3000 4500 13000 3000 0 13000 29500 4500 13000 29500 0 25000 29500 4500 25000 29500 0 25000 7900 4500 25000 7900 0 18500 7900 4500 18500 7900 0 18500 5700 4500 18500 5700 0 30000 5700 4500 30000 5700 0 30000 0 4500 30000 0 0 34000 0 4500 34000 0 0 34000 10500 4500 34000 10500 0 29000 10500 4500 29000 10500 0 29000 35500 4500 29000 35500 0 24000 35500 4500 24000 35500 0 24000 32500 4500 24000 32500 0 500 35000 0 500 500 0 12500 35000 0 12500 32000 0 24500 32000 0 24500 35000 0 28500 35000 0 28500 10000 0 33500 10000 0 33500 500 0 30500 500 0 30500 6200 0 19000 6200 0 19000 7400 0 25500 7400 0 25500 30000 0 12500 30000 0 12500 2500 0 15500 2500 0 15500 500 0 5500 31500 4000 5500 3000 4000 5500 31500 0 5500 3000 0 10000 31500 4000 10000 31500 0 10000 3000 4000 10000 3000 0 10500 32000 0 10500 2500 0 5000 32000 0 5000 2500 0</float_array>
          <technique_common>
            <accessor source="#五楼仿真-mesh-positions-array" count="96" stride="3">
              <param name="X" type="float"/>
              <param name="Y" type="float"/>
              <param name="Z" type="float"/>
            </accessor>
          </technique_common>
        </source>
        <source id="五楼仿真-mesh-normals">
          <float_array id="五楼仿真-mesh-normals-array" count="564">0 0 -1 0 0 -1 0 0 -1 0 0 -1 0 0 -1 0 0 -1 0 0 -1 0 0 -1 0 0 -1 0 0 -1 0 0 -1 0 0 -1 0 0 -1 0 0 -1 0 0 -1 0 0 -1 0 0 -1 0 0 -1 0 0 -1 0 0 -1 0 0 -1 0 0 -1 0 0 -1 0 0 -1 1 0 0 1 0 0 0 1 0 0 1 0 -1 0 0 -1 0 0 0 -1 0 0 -1 0 1 0 0 1 0 0 0 1 0 0 1 0 1 0 0 1 0 0 0 -1 0 0 -1 0 -1 0 0 -1 0 0 0 1 0 0 1 0 -1 0 0 -1 0 0 0 -1 0 0 -1 0 -1 0 0 -1 0 0 0 -1 0 0 -1 0 1 0 0 1 0 0 0 1 0 0 1 0 1 0 0 1 0 0 0 1 0 0 1 0 -1 0 0 -1 0 0 1 0 0 1 0 0 0 -1 0 0 -1 0 -1 0 0 -1 0 0 0 -1 0 0 -1 0 1 0 0 1 0 0 0 -1 0 0 -1 0 -1 0 0 -1 0 0 0 -1 0 0 -1 0 -1 0 0 -1 0 0 0 1 0 0 1 0 1 0 0 1 0 0 0 1 0 0 1 0 1 0 0 1 0 0 0 -1 0 0 -1 0 1 0 0 1 0 0 0 1 0 0 1 0 -1 0 0 -1 0 0 0 -1 0 0 -1 0 -1 0 0 -1 0 0 0 1 0 0 1 0 0 1 0 0 1 0 0 0 -1 0 0 -1 0 0 -1 0 0 -1 0 0 -1 0 0 -1 0 0 -1 0 0 -1 0 0 -1 0 0 -1 0 0 -1 0 0 -1 0 0 -1 0 0 -1 0 0 -1 0 0 -1 0 0 -1 0 0 -1 0 0 -1 0 0 -1 0 0 -1 0 0 -1 0 0 -1 0 0 -1 0 0 -1 0 0 -1 0 0 -1 0 0 -1 0 0 -1 0 0 -1 0 0 -1 0 0 -1 0 0 -1 0 0 -1 0 0 -1 0 0 -1 0 0 -1 0 0 -1 0 0 -1 0 0 -1 0 0 -1 0 0 -1 0 0 -1 0 0 -1 0 0 -1 0 0 -1 0 0 -1 0 0 -1 0 0 -1 0 0 -1 0 0 -1 0 0 -1 0 0 -1 0 0 -1 0 0 -1 0 0 -1 0 0 -1 0 0 -1 1 0 0 1 0 0 0 -1 0 0 -1 0 -1 0 0 -1 0 0 1 0 0 1 0 0 0 1 0 0 1 0 -1 0 0 -1 0 0 0 -1 0 0 -1 0 0 1 0 0 1 0 0 0 -1 0 0 -1 0 0 -1 0 0 -1 0 0 -1 0 0 -1 0 0 -1 0 0 -1 0 0 -1 0 0 -1</float_array>
          <technique_common>
            <accessor source="#五楼仿真-mesh-normals-array" count="188" stride="3">
              <param name="X" type="float"/>
              <param name="Y" type="float"/>
              <param name="Z" type="float"/>
            </accessor>
          </technique_common>
        </source>
        <vertices id="五楼仿真-mesh-vertices">
          <input semantic="POSITION" source="#五楼仿真-mesh-positions"/>
        </vertices>
        <triangles count="188">
          <input semantic="VERTEX" source="#五楼仿真-mesh-vertices" offset="0"/>
          <input semantic="NORMAL" source="#五楼仿真-mesh-normals" offset="1"/>
          <p>0 0 1 0 2 0 3 1 4 1 5 1 5 2 4 2 6 2 7 3 8 3 9 3 1 4 0 4 10 4 10 5 0 5 11 5 10 6 11 6 12 6 13 7 14 7 2 7 2 8 14 8 15 8 2 9 15 9 0 9 0 10 15 10 16 10 0 11 16 11 17 11 6 12 4 12 18 12 18 13 4 13 19 13 18 14 19 14 20 14 20 15 19 15 21 15 20 16 21 16 3 16 9 17 20 17 7 17 7 18 20 18 3 18 7 19 3 19 22 19 22 20 3 20 5 20 22 21 5 21 11 21 11 22 5 22 23 22 11 23 23 23 12 23 24 24 25 24 26 24 26 25 25 25 27 25 28 26 24 26 29 26 29 27 24 27 26 27 30 28 28 28 31 28 31 29 28 29 29 29 32 30 30 30 33 30 33 31 30 31 31 31 34 32 32 32 35 32 35 33 32 33 33 33 36 34 34 34 37 34 37 35 34 35 35 35 38 36 36 36 39 36 39 37 36 37 37 37 40 38 38 38 41 38 41 39 38 39 39 39 42 40 40 40 43 40 43 41 40 41 41 41 44 42 42 42 45 42 45 43 42 43 43 43 46 44 44 44 47 44 47 45 44 45 45 45 48 46 46 46 49 46 49 47 46 47 47 47 50 48 48 48 51 48 51 49 48 49 49 49 52 50 50 50 53 50 53 51 50 51 51 51 54 52 52 52 55 52 55 53 52 53 53 53 56 54 54 54 57 54 57 55 54 55 55 55 58 56 56 56 59 56 59 57 56 57 57 57 60 58 58 58 61 58 61 59 58 59 59 59 62 60 60 60 63 60 63 61 60 61 61 61 18 62 20 62 64 62 64 63 20 63 65 63 6 64 18 64 66 64 66 65 18 65 64 65 5 66 6 66 67 66 67 67 6 67 66 67 23 68 5 68 68 68 68 69 5 69 67 69 12 70 23 70 69 70 69 71 23 71 68 71 10 72 12 72 70 72 70 73 12 73 69 73 1 74 10 74 71 74 71 75 10 75 70 75 2 76 1 76 72 76 72 77 1 77 71 77 13 78 2 78 73 78 73 79 2 79 72 79 14 80 13 80 74 80 74 81 13 81 73 81 15 82 14 82 75 82 75 83 14 83 74 83 16 84 15 84 76 84 76 85 15 85 75 85 17 86 16 86 77 86 77 87 16 87 76 87 0 88 17 88 78 88 78 89 17 89 77 89 11 90 0 90 79 90 79 91 0 91 78 91 22 92 11 92 80 92 80 93 11 93 79 93 7 94 22 94 81 94 81 95 22 95 80 95 8 96 7 96 82 96 82 97 7 97 81 97 9 98 8 98 83 98 83 99 8 99 82 99 20 100 9 100 65 100 65 101 9 101 83 101 25 102 62 102 27 102 27 103 62 103 63 103 63 104 68 104 27 104 27 105 68 105 67 105 27 106 67 106 26 106 26 107 67 107 66 107 26 108 66 108 29 108 29 109 66 109 64 109 29 110 64 110 31 110 31 111 64 111 65 111 31 112 65 112 33 112 33 113 65 113 83 113 33 114 83 114 35 114 35 115 83 115 82 115 35 116 82 116 37 116 37 117 82 117 81 117 37 118 81 118 39 118 39 119 81 119 80 119 39 120 80 120 41 120 41 121 80 121 79 121 41 122 79 122 43 122 43 123 79 123 78 123 43 124 78 124 45 124 45 125 78 125 77 125 45 126 77 126 47 126 47 127 77 127 76 127 47 128 76 128 49 128 49 129 76 129 75 129 49 130 75 130 51 130 51 131 75 131 74 131 51 132 74 132 53 132 53 133 74 133 73 133 53 134 73 134 55 134 55 135 73 135 72 135 55 136 72 136 57 136 57 137 72 137 71 137 57 138 71 138 59 138 59 139 71 139 70 139 59 140 70 140 61 140 61 141 70 141 69 141 61 142 69 142 63 142 63 143 69 143 68 143 32 144 36 144 34 144 38 145 36 145 28 145 36 146 30 146 28 146 36 147 32 147 30 147 44 148 42 148 46 148 42 149 48 149 46 149 24 150 25 150 28 150 25 151 38 151 28 151 25 152 62 152 38 152 62 153 40 153 38 153 62 154 60 154 40 154 50 155 48 155 52 155 48 156 54 156 52 156 48 157 42 157 54 157 42 158 56 158 54 158 42 159 40 159 56 159 40 160 58 160 56 160 40 161 60 161 58 161 84 162 85 162 86 162 86 163 85 163 87 163 88 164 84 164 89 164 89 165 84 165 86 165 90 166 88 166 91 166 91 167 88 167 89 167 4 168 3 168 92 168 92 169 3 169 93 169 19 170 4 170 94 170 94 171 4 171 92 171 21 172 19 172 95 172 95 173 19 173 94 173 3 174 21 174 93 174 93 175 21 175 95 175 85 176 90 176 87 176 87 177 90 177 91 177 86 178 94 178 89 178 89 179 94 179 92 179 89 180 92 180 91 180 91 181 92 181 93 181 91 182 93 182 87 182 87 183 93 183 95 183 87 184 95 184 86 184 86 185 95 185 94 185 84 186 88 186 85 186 85 187 88 187 90 187</p>
        </triangles>
      </mesh>
    </geometry>
  </library_geometries>
  <library_controllers/>
  <library_visual_scenes>
    <visual_scene id="Scene" name="Scene">
      <node id="五楼仿真" name="五楼仿真" type="NODE">
        <matrix sid="transform">0.001 0 0 0 0 0.001 0 0 0 0 0.001 0 0 0 0 1</matrix>
        <instance_geometry url="#五楼仿真-mesh" name="五楼仿真"/>
      </node>
    </visual_scene>
  </library_visual_scenes>
  <scene>
    <instance_visual_scene url="#Scene"/>
  </scene>
</COLLADA>