<?xml version="1.0" encoding="UTF-8"?>
<COLLADA xmlns="http://www.collada.org/2005/11/COLLADASchema" version="1.4.1">
    <asset>
        <contributor>
            <author>VCGLab</author>
            <authoring_tool>VCGLib | MeshLab</authoring_tool>
        </contributor>
        <created>Wed Jan 29 12:35:22 2025 GMT</created>
        <modified>Wed Jan 29 12:35:22 2025 GMT</modified>
        <up_axis>Y_UP</up_axis>
    </asset>
    <library_geometries>
        <geometry id="shape0-lib" name="shape0">
            <mesh>
                <source id="shape0-lib-positions" name="position">
                    <float_array id="shape0-lib-positions-array" count="138">0.803481 -3.04798 1.19648 1.35786 -3.04798 0.717681 0.803481 -3.39798 1.19648 1.35786 -3.39798 0.717681 1.97602 -3.04798 0.324661 2.64479 -3.04798 0.0257861 1.97602 -3.39798 0.324661 2.64479 -3.39798 0.0257861 0.324684 -3.39798 1.75086 -0.0683364 -3.39798 2.36901 0.324684 -3.04798 1.75086 -0.0683364 -3.04798 2.36901 -0.367212 -3.39798 3.03779 -0.367212 -3.04798 3.03779 2.65159 -3.04798 0.0445924 2.65159 -3.39798 0.0445924 1.98549 -3.39798 0.342277 0.340733 -3.39798 1.76279 0.817623 -3.39798 1.21062 0.817623 -3.04798 1.21062 1.36979 -3.39798 0.733731 1.98549 -3.04798 0.342277 1.36979 -3.04798 0.733731 -0.348405 -3.39798 3.04459 -0.0507209 -3.39798 2.37848 -0.0507209 -3.04798 2.37848 0.340733 -3.04798 1.76279 -0.348405 -3.04798 3.04459 -0.348405 -3.41798 0.0445924 -0.348405 -3.41798 3.04459 -0.348405 -3.39798 0.0445924 2.65159 -3.41798 0.0445924 1.98549 -3.41798 0.342277 1.36979 -3.41798 0.733731 -0.0507209 -3.41798 2.37848 0.817623 -3.41798 1.21062 0.340733 -3.41798 1.76279 -0.348405 -3.02798 3.04459 -0.348405 -3.04798 0.0445924 -0.348405 -3.02798 0.0445924 2.65159 -3.02798 0.0445924 -0.0507209 -3.02798 2.37848 0.340733 -3.02798 1.76279 1.98549 -3.02798 0.342277 1.36979 -3.02798 0.733731 0.817623 -3.02798 1.21062</float_array>
                    <technique_common>
                        <accessor count="46" source="#shape0-lib-positions-array" stride="3">
                            <param name="X" type="float"/>
                            <param name="Y" type="float"/>
                            <param name="Z" type="float"/>
                        </accessor>
                    </technique_common>
                </source>
                <source id="shape0-lib-normals" name="normal">
                    <float_array id="shape0-lib-normals-array" count="324">-0.653633 0 -0.756811 -0.536531 0 -0.843881 -0.653633 0 -0.756811 -0.408011 0 -0.912977 -0.536531 0 -0.843881 -0.408011 0 -0.912977 -0.756813 0 -0.653631 -0.843876 0 -0.536538 -0.756813 0 -0.653631 -0.912979 0 -0.408007 -0.843876 0 -0.536538 -0.912979 0 -0.408007 0.94041 0 -0.340043 0.94041 0 -0.340043 0.408015 0 0.912975 0.756812 0 0.653632 0.536529 0 0.843882 0.912978 0 0.408009 0.843878 0 0.536535 0.912978 0 0.408009 0.756812 0 0.653632 0.843878 0 0.536535 0.653634 0 0.756811 0.653634 0 0.756811 0.408015 0 0.912975 0.536529 0 0.843882 -0.340021 0 0.940418 -0.340021 0 0.940418 0 -1 0 0 -1 0 0 -1 0 0 -1 0 0 -1 0 0 -1 0 0 -1 0 0 -1 0 0 -1 0 0 -1 0 0 -1 0 0 -1 0 0 1 0 0 1 0 0 1 0 0 1 0 0 1 0 0 1 0 0 1 0 0 1 0 0 1 0 0 1 0 0 1 0 0 1 0 -1 0 0 -1 0 0 0 0 -1 0 0 -1 0 -1 0 0 -1 0 0 -1 0 0 -1 0 0 -1 0 0 -1 0 0 1 0 0 1 0 0 1 0 0 1 0 0 1 0 0 1 0 0.653634 0 0.756811 0.536529 0 0.843882 0.653634 0 0.756811 0.408015 0 0.912975 0.536529 0 0.843882 0.408015 0 0.912975 0.756812 0 0.653632 0.843878 0 0.536535 0.756812 0 0.653632 0.912978 0 0.408009 0.843878 0 0.536535 0.912978 0 0.408009 -1 0 0 -1 0 0 0 0 -1 0 0 -1 0 -1 0 0 -1 0 0 -1 0 0 -1 0 0 -1 0 0 -1 0 0 1 0 0 1 0 0 1 0 0 1 0 0 1 0 0 1 0 0.653634 0 0.756811 0.536529 0 0.843882 0.653634 0 0.756811 0.408015 0 0.912975 0.536529 0 0.843882 0.408015 0 0.912975 0.756812 0 0.653632 0.843878 0 0.536535 0.756812 0 0.653632 0.912978 0 0.408009 0.843878 0 0.536535 0.912978 0 0.408009</float_array>
                    <technique_common>
                        <accessor count="108" source="#shape0-lib-normals-array" stride="3">
                            <param name="X" type="float"/>
                            <param name="Y" type="float"/>
                            <param name="Z" type="float"/>
                        </accessor>
                    </technique_common>
                </source>
                <vertices id="shape0-lib-vertices">
                    <input semantic="POSITION" source="#shape0-lib-positions"/>
                </vertices>
                <triangles count="108">
                    <input offset="0" semantic="VERTEX" source="#shape0-lib-vertices"/>
                    <input offset="1" semantic="NORMAL" source="#shape0-lib-normals"/>
                    <p>0 0 1 0 2 0 3 1 1 1 4 1 1 2 3 2 2 2 5 3 6 3 4 3 3 4 4 4 6 4 7 5 6 5 5 5 8 6 0 6 2 6 8 7 9 7 10 7 10 8 0 8 8 8 11 9 9 9 12 9 9 10 11 10 10 10 11 11 12 11 13 11 7 12 14 12 15 12 14 13 7 13 5 13 16 14 15 14 14 14 17 15 18 15 19 15 20 16 21 16 22 16 23 17 24 17 25 17 26 18 25 18 24 18 27 19 23 19 25 19 26 20 17 20 19 20 26 21 24 21 17 21 18 22 20 22 22 22 19 23 18 23 22 23 16 24 14 24 21 24 20 25 16 25 21 25 23 26 13 26 12 26 13 27 23 27 27 27 6 28 20 28 3 28 3 29 18 29 2 29 7 30 16 30 6 30 7 31 15 31 16 31 8 32 18 32 17 32 24 33 9 33 17 33 6 34 16 34 20 34 3 35 20 35 18 35 8 36 2 36 18 36 9 37 8 37 17 37 12 38 9 38 24 38 24 39 23 39 12 39 5 40 4 40 21 40 5 41 21 41 14 41 4 42 1 42 22 42 19 43 22 43 1 43 10 44 26 44 19 44 0 45 10 45 19 45 26 46 11 46 25 46 25 47 13 47 27 47 25 48 11 48 13 48 26 49 10 49 11 49 19 50 1 50 0 50 22 51 21 51 4 51 23 52 28 52 29 52 28 53 23 53 30 53 15 54 31 54 28 54 28 55 30 55 15 55 28 56 32 56 33 56 34 57 29 57 28 57 35 58 36 58 28 58 28 59 36 59 34 59 31 60 32 60 28 60 28 61 33 61 35 61 30 62 24 62 17 62 23 63 24 63 30 63 16 64 30 64 20 64 17 65 18 65 30 65 16 66 15 66 30 66 18 67 20 67 30 67 35 68 20 68 18 68 16 69 20 69 33 69 35 70 33 70 20 70 16 71 32 71 15 71 32 72 16 72 33 72 15 73 32 73 31 73 36 74 35 74 18 74 36 75 17 75 34 75 17 76 36 76 18 76 24 77 29 77 34 77 34 78 17 78 24 78 24 79 23 79 29 79 37 80 38 80 27 80 38 81 37 81 39 81 40 82 14 82 38 82 38 83 39 83 40 83 38 84 21 84 22 84 25 85 27 85 38 85 19 86 26 86 38 86 38 87 26 87 25 87 14 88 21 88 38 88 38 89 22 89 19 89 39 90 41 90 42 90 37 91 41 91 39 91 43 92 39 92 44 92 42 93 45 93 39 93 43 94 40 94 39 94 45 95 44 95 39 95 19 96 44 96 45 96 43 97 44 97 22 97 19 98 22 98 44 98 43 99 21 99 40 99 21 100 43 100 22 100 40 101 21 101 14 101 26 102 19 102 45 102 26 103 42 103 25 103 42 104 26 104 45 104 41 105 27 105 25 105 25 106 42 106 41 106 41 107 37 107 27 107</p>
                </triangles>
            </mesh>
        </geometry>
    </library_geometries>
    <library_visual_scenes>
        <visual_scene id="VisualSceneNode" name="VisualScene">
            <node id="node" name="node">
                <instance_geometry url="#shape0-lib"/>
            </node>
        </visual_scene>
    </library_visual_scenes>
    <scene>
        <instance_visual_scene url="#VisualSceneNode"/>
    </scene>
</COLLADA>
