<?xml version="1.0" encoding="utf-8"?>
<COLLADA xmlns="http://www.collada.org/2005/11/COLLADASchema" version="1.4.1">
  <asset>
    <contributor>
      <author/>
      <authoring_tool>FBX COLLADA exporter</authoring_tool>
      <comments/>
    </contributor>
    <created>2019-05-30T16:44:18Z</created>
    <keywords/>
    <modified>2019-05-30T16:44:18Z</modified>
    <revision/>
    <subject/>
    <title/>
    <unit meter="0.010000" name="centimeter"/>
    <up_axis>Z_UP</up_axis>
  </asset>
  <library_images>
    <image id="ConstrainedWall_ncl1_1-image" name="ConstrainedWall_ncl1_1">
      <init_from>https://fuel.ignitionrobotics.org/1.0/openrobotics/models/tunnel tile 1/tip/files/materials/textures/ConstrainedWall_Albedo.jpg</init_from>
    </image>
  </library_images>
  <library_materials>
    <material id="ConstrainedWall" name="ConstrainedWall">
      <instance_effect url="#ConstrainedWall-fx"/>
    </material>
  </library_materials>
  <library_effects>
    <effect id="ConstrainedWall-fx" name="ConstrainedWall">
      <profile_COMMON>
        <technique sid="standard">
          <phong>
            <emission>
              <color sid="emission">0.000000  0.000000 0.000000 1.000000</color>
            </emission>
            <ambient>
              <color sid="ambient">0.588000  0.588000 0.588000 1.000000</color>
            </ambient>
            <diffuse>
              <texture texture="ConstrainedWall_ncl1_1-image" texcoord="CHANNEL0">
                <extra>
                  <technique profile="MAYA">
                    <wrapU sid="wrapU0">TRUE</wrapU>
                    <wrapV sid="wrapV0">TRUE</wrapV>
                    <blend_mode>ADD</blend_mode>
                  </technique>
                </extra>
              </texture>
            </diffuse>
            <specular>
              <color sid="specular">0.000000  0.000000 0.000000 1.000000</color>
            </specular>
            <shininess>
              <float sid="shininess">2.000000</float>
            </shininess>
            <reflective>
              <color sid="reflective">0.000000  0.000000 0.000000 1.000000</color>
            </reflective>
            <reflectivity>
              <float sid="reflectivity">1.000000</float>
            </reflectivity>
            <transparent opaque="RGB_ZERO">
              <color sid="transparent">1.000000  1.000000 1.000000 1.000000</color>
            </transparent>
            <transparency>
              <float sid="transparency">0.000000</float>
            </transparency>
          </phong>
        </technique>
      </profile_COMMON>
    </effect>
  </library_effects>
  <library_geometries>
    <geometry id="Blocker-lib" name="BlockerMesh">
      <mesh>
        <source id="Blocker-POSITION">
          <float_array id="Blocker-POSITION-array" count="294">
-291.258148 -291.258148 -206.293823
-154.729996 -309.459991 -224.495667
0.000000 -317.701294 -232.736984
154.729996 -309.459991 -224.495667
291.258148 -291.258148 -206.293823
-309.459991 -154.729996 -224.495667
-169.996979 -169.996979 -255.029633
0.000000 -177.937744 -270.911163
169.996979 -169.996979 -255.029633
309.459991 -154.729996 -224.495667
-317.701294 0.000000 -232.736984
-177.937744 0.000000 -270.911163
0.000000 0.000000 -292.425903
177.937744 0.000000 -270.911163
317.701294 0.000000 -232.736984
-309.459991 154.729996 -224.495667
-169.996979 169.996979 -255.029633
0.000000 177.937744 -270.911163
169.996979 169.996979 -255.029633
309.459991 154.729996 -224.495667
-291.258148 291.258148 -206.293823
-154.729996 309.459991 -224.495667
0.000000 317.701294 -232.736984
154.729996 309.459991 -224.495667
291.258148 291.258148 -206.293823
-291.258148 -291.258148 376.222473
-154.729996 -309.459991 394.424316
0.000000 -317.701294 402.665649
154.729996 -309.459991 394.424316
291.258148 -291.258148 376.222473
-309.459991 -154.729996 394.424316
-169.996979 -169.996979 424.958252
0.000000 -177.937744 440.839783
169.996979 -169.996979 424.958252
309.459991 -154.729996 394.424316
-317.701294 0.000000 402.665649
-177.937744 0.000000 440.839783
0.000000 0.000000 462.354553
177.937744 0.000000 440.839783
317.701294 0.000000 402.665649
-309.459991 154.729996 394.424316
-169.996979 169.996979 424.958252
0.000000 177.937744 440.839783
169.996979 169.996979 424.958252
309.459991 154.729996 394.424316
-291.258148 291.258148 376.222473
-154.729996 309.459991 394.424316
0.000000 317.701294 402.665649
154.729996 309.459991 394.424316
291.258148 291.258148 376.222473
-309.459991 -309.459991 -69.765671
-169.996979 -339.993958 -85.032654
0.000000 -355.875488 -92.973419
169.996979 -339.993958 -85.032654
309.459991 -309.459991 -69.765671
339.993958 -169.996979 -85.032654
355.875488 0.000000 -92.973419
339.993958 169.996979 -85.032654
309.459991 309.459991 -69.765671
169.996979 339.993958 -85.032654
0.000000 355.875488 -92.973419
-169.996979 339.993958 -85.032654
-309.459991 309.459991 -69.765671
-339.993958 169.996979 -85.032654
-355.875488 0.000000 -92.973419
-339.993958 -169.996979 -85.032654
-317.701294 -317.701294 84.964325
-177.937744 -355.875488 84.964325
0.000000 -377.390228 84.964325
177.937744 -355.875488 84.964325
317.701294 -317.701294 84.964325
355.875488 -177.937744 84.964325
377.390228 0.000000 84.964325
355.875488 177.937744 84.964325
317.701294 317.701294 84.964325
177.937744 355.875488 84.964325
0.000000 377.390228 84.964325
-177.937744 355.875488 84.964325
-317.701294 317.701294 84.964325
-355.875488 177.937744 84.964325
-377.390228 0.000000 84.964325
-355.875488 -177.937744 84.964325
-309.459991 -309.459991 239.694336
-169.996979 -339.993958 254.961304
0.000000 -355.875488 262.902039
169.996979 -339.993958 254.961304
309.459991 -309.459991 239.694336
339.993958 -169.996979 254.961304
355.875488 0.000000 262.902039
339.993958 169.996979 254.961304
309.459991 309.459991 239.694336
169.996979 339.993958 254.961304
0.000000 355.875488 262.902039
-169.996979 339.993958 254.961304
-309.459991 309.459991 239.694336
-339.993958 169.996979 254.961304
-355.875488 0.000000 262.902039
-339.993958 -169.996979 254.961304
</float_array>
          <technique_common>
            <accessor source="#Blocker-POSITION-array" count="98" stride="3">
              <param name="X" type="float"/>
              <param name="Y" type="float"/>
              <param name="Z" type="float"/>
            </accessor>
          </technique_common>
        </source>
        <source id="Blocker-Normal0">
          <float_array id="Blocker-Normal0-array" count="1728">
-0.132577 -0.221058 -0.966208
-0.193300 -0.193300 -0.961910
-0.157727 -0.157727 -0.974805
-0.193300 -0.193300 -0.961910
-0.221058 -0.132577 -0.966208
-0.157727 -0.157727 -0.974805
0.000000 -0.243276 -0.969957
-0.132577 -0.221058 -0.966208
0.000000 -0.177981 -0.984034
-0.132577 -0.221058 -0.966208
-0.157727 -0.157727 -0.974805
0.000000 -0.177981 -0.984034
0.132577 -0.221058 -0.966208
0.000000 -0.177981 -0.984034
0.157727 -0.157727 -0.974805
0.000000 -0.177981 -0.984034
0.132577 -0.221058 -0.966208
0.000000 -0.243276 -0.969957
0.193300 -0.193300 -0.961910
0.157727 -0.157727 -0.974805
0.221058 -0.132577 -0.966208
0.157727 -0.157727 -0.974805
0.193300 -0.193300 -0.961910
0.132577 -0.221058 -0.966208
-0.157727 -0.157727 -0.974805
-0.221058 -0.132577 -0.966208
-0.177981 -0.000000 -0.984034
-0.221058 -0.132577 -0.966208
-0.243276 0.000000 -0.969957
-0.177981 -0.000000 -0.984034
0.000000 -0.177981 -0.984034
-0.157727 -0.157727 -0.974805
0.000000 -0.000000 -1.000000
-0.157727 -0.157727 -0.974805
-0.177981 -0.000000 -0.984034
0.000000 -0.000000 -1.000000
0.157727 -0.157727 -0.974805
0.000000 -0.000000 -1.000000
0.177981 -0.000000 -0.984034
0.000000 -0.000000 -1.000000
0.157727 -0.157727 -0.974805
0.000000 -0.177981 -0.984034
0.221058 -0.132577 -0.966208
0.177981 -0.000000 -0.984034
0.243276 0.000000 -0.969957
0.177981 -0.000000 -0.984034
0.221058 -0.132577 -0.966208
0.157727 -0.157727 -0.974805
-0.177981 -0.000000 -0.984034
-0.221058 0.132577 -0.966208
-0.157727 0.157727 -0.974805
-0.221058 0.132577 -0.966208
-0.177981 -0.000000 -0.984034
-0.243276 0.000000 -0.969957
0.000000 -0.000000 -1.000000
-0.157727 0.157727 -0.974805
0.000000 0.177981 -0.984034
-0.157727 0.157727 -0.974805
0.000000 -0.000000 -1.000000
-0.177981 -0.000000 -0.984034
0.177981 -0.000000 -0.984034
0.000000 -0.000000 -1.000000
0.157727 0.157727 -0.974805
0.000000 -0.000000 -1.000000
0.000000 0.177981 -0.984034
0.157727 0.157727 -0.974805
0.243276 0.000000 -0.969957
0.177981 -0.000000 -0.984034
0.221058 0.132577 -0.966208
0.177981 -0.000000 -0.984034
0.157727 0.157727 -0.974805
0.221058 0.132577 -0.966208
-0.157727 0.157727 -0.974805
-0.193300 0.193300 -0.961910
-0.132577 0.221058 -0.966208
-0.193300 0.193300 -0.961910
-0.157727 0.157727 -0.974805
-0.221058 0.132577 -0.966208
0.000000 0.177981 -0.984034
-0.132577 0.221058 -0.966208
0.000000 0.243276 -0.969957
-0.132577 0.221058 -0.966208
0.000000 0.177981 -0.984034
-0.157727 0.157727 -0.974805
0.157727 0.157727 -0.974805
0.000000 0.177981 -0.984034
0.132577 0.221058 -0.966208
0.000000 0.177981 -0.984034
0.000000 0.243276 -0.969957
0.132577 0.221058 -0.966208
0.221058 0.132577 -0.966208
0.157727 0.157727 -0.974805
0.193300 0.193300 -0.961910
0.157727 0.157727 -0.974805
0.132577 0.221058 -0.966208
0.193300 0.193300 -0.961910
-0.157727 -0.157727 0.974805
-0.221057 -0.132577 0.966208
-0.193299 -0.193299 0.961910
-0.157727 -0.157727 0.974805
-0.193299 -0.193299 0.961910
-0.132577 -0.221057 0.966208
0.000000 -0.177981 0.984034
-0.157727 -0.157727 0.974805
-0.132577 -0.221057 0.966208
0.000000 -0.177981 0.984034
-0.132577 -0.221057 0.966208
0.000000 -0.243276 0.969957
0.000000 -0.177981 0.984034
0.132577 -0.221057 0.966208
0.157727 -0.157727 0.974805
0.132577 -0.221057 0.966208
0.000000 -0.177981 0.984034
0.000000 -0.243276 0.969957
0.157727 -0.157727 0.974805
0.193299 -0.193299 0.961910
0.221057 -0.132577 0.966208
0.193299 -0.193299 0.961910
0.157727 -0.157727 0.974805
0.132577 -0.221057 0.966208
-0.177981 0.000000 0.984034
-0.243276 0.000000 0.969957
-0.221057 -0.132577 0.966208
-0.177981 0.000000 0.984034
-0.221057 -0.132577 0.966208
-0.157727 -0.157727 0.974805
-0.000000 -0.000000 1.000000
-0.177981 0.000000 0.984034
-0.157727 -0.157727 0.974805
-0.000000 -0.000000 1.000000
-0.157727 -0.157727 0.974805
0.000000 -0.177981 0.984034
-0.000000 -0.000000 1.000000
0.157727 -0.157727 0.974805
0.177981 -0.000000 0.984034
0.157727 -0.157727 0.974805
-0.000000 -0.000000 1.000000
0.000000 -0.177981 0.984034
0.177981 -0.000000 0.984034
0.221057 -0.132577 0.966208
0.243276 -0.000000 0.969957
0.221057 -0.132577 0.966208
0.177981 -0.000000 0.984034
0.157727 -0.157727 0.974805
-0.221057 0.132577 0.966208
-0.177981 0.000000 0.984034
-0.157727 0.157727 0.974805
-0.177981 0.000000 0.984034
-0.221057 0.132577 0.966208
-0.243276 0.000000 0.969957
-0.157727 0.157727 0.974805
-0.000000 -0.000000 1.000000
-0.000000 0.177981 0.984034
-0.000000 -0.000000 1.000000
-0.157727 0.157727 0.974805
-0.177981 0.000000 0.984034
0.157727 0.157727 0.974805
-0.000000 0.177981 0.984034
-0.000000 -0.000000 1.000000
0.157727 0.157727 0.974805
-0.000000 -0.000000 1.000000
0.177981 -0.000000 0.984034
0.221057 0.132577 0.966208
0.157727 0.157727 0.974805
0.177981 -0.000000 0.984034
0.221057 0.132577 0.966208
0.177981 -0.000000 0.984034
0.243276 -0.000000 0.969957
-0.193299 0.193299 0.961910
-0.157727 0.157727 0.974805
-0.132577 0.221057 0.966208
-0.157727 0.157727 0.974805
-0.193299 0.193299 0.961910
-0.221057 0.132577 0.966208
-0.132577 0.221057 0.966208
-0.000000 0.177981 0.984034
0.000000 0.243276 0.969957
-0.000000 0.177981 0.984034
-0.132577 0.221057 0.966208
-0.157727 0.157727 0.974805
0.132577 0.221057 0.966208
0.000000 0.243276 0.969957
-0.000000 0.177981 0.984034
0.132577 0.221057 0.966208
-0.000000 0.177981 0.984034
0.157727 0.157727 0.974805
0.193299 0.193299 0.961910
0.132577 0.221057 0.966208
0.157727 0.157727 0.974805
0.193299 0.193299 0.961910
0.157727 0.157727 0.974805
0.221057 0.132577 0.966208
-0.157727 -0.974805 -0.157727
-0.221058 -0.966207 -0.132577
-0.193300 -0.961910 -0.193300
-0.157727 -0.974805 -0.157727
-0.193300 -0.961910 -0.193300
-0.132577 -0.966207 -0.221058
0.000000 -0.984034 -0.177981
-0.157727 -0.974805 -0.157727
-0.132577 -0.966207 -0.221058
0.000000 -0.984034 -0.177981
-0.132577 -0.966207 -0.221058
0.000000 -0.969957 -0.243276
0.000000 -0.984034 -0.177981
0.132577 -0.966207 -0.221058
0.157727 -0.974805 -0.157727
0.132577 -0.966207 -0.221058
0.000000 -0.984034 -0.177981
0.000000 -0.969957 -0.243276
0.157727 -0.974805 -0.157727
0.193300 -0.961910 -0.193300
0.221058 -0.966207 -0.132577
0.193300 -0.961910 -0.193300
0.157727 -0.974805 -0.157727
0.132577 -0.966207 -0.221058
-0.177981 -0.984034 0.000000
-0.243276 -0.969957 0.000000
-0.221058 -0.966207 -0.132577
-0.177981 -0.984034 0.000000
-0.221058 -0.966207 -0.132577
-0.157727 -0.974805 -0.157727
-0.000000 -1.000000 0.000000
-0.177981 -0.984034 0.000000
-0.157727 -0.974805 -0.157727
-0.000000 -1.000000 0.000000
-0.157727 -0.974805 -0.157727
0.000000 -0.984034 -0.177981
-0.000000 -1.000000 0.000000
0.157727 -0.974805 -0.157727
0.177981 -0.984034 -0.000000
0.157727 -0.974805 -0.157727
-0.000000 -1.000000 0.000000
0.000000 -0.984034 -0.177981
0.177981 -0.984034 -0.000000
0.221058 -0.966207 -0.132577
0.243276 -0.969957 -0.000000
0.221058 -0.966207 -0.132577
0.177981 -0.984034 -0.000000
0.157727 -0.974805 -0.157727
-0.221058 -0.966207 0.132577
-0.177981 -0.984034 0.000000
-0.157727 -0.974805 0.157727
-0.177981 -0.984034 0.000000
-0.221058 -0.966207 0.132577
-0.243276 -0.969957 0.000000
-0.157727 -0.974805 0.157727
-0.000000 -1.000000 0.000000
-0.000000 -0.984034 0.177981
-0.000000 -1.000000 0.000000
-0.157727 -0.974805 0.157727
-0.177981 -0.984034 0.000000
0.157727 -0.974805 0.157727
-0.000000 -0.984034 0.177981
-0.000000 -1.000000 0.000000
0.157727 -0.974805 0.157727
-0.000000 -1.000000 0.000000
0.177981 -0.984034 -0.000000
0.221058 -0.966207 0.132577
0.157727 -0.974805 0.157727
0.177981 -0.984034 -0.000000
0.221058 -0.966207 0.132577
0.177981 -0.984034 -0.000000
0.243276 -0.969957 -0.000000
-0.193300 -0.961910 0.193300
-0.157727 -0.974805 0.157727
-0.132577 -0.966207 0.221058
-0.157727 -0.974805 0.157727
-0.193300 -0.961910 0.193300
-0.221058 -0.966207 0.132577
-0.132577 -0.966207 0.221058
-0.000000 -0.984034 0.177981
-0.000000 -0.969957 0.243276
-0.000000 -0.984034 0.177981
-0.132577 -0.966207 0.221058
-0.157727 -0.974805 0.157727
0.132577 -0.966207 0.221058
-0.000000 -0.969957 0.243276
-0.000000 -0.984034 0.177981
0.132577 -0.966207 0.221058
-0.000000 -0.984034 0.177981
0.157727 -0.974805 0.157727
0.193300 -0.961910 0.193300
0.132577 -0.966207 0.221058
0.157727 -0.974805 0.157727
0.193300 -0.961910 0.193300
0.157727 -0.974805 0.157727
0.221058 -0.966207 0.132577
0.974805 -0.157727 -0.157727
0.966207 -0.221058 -0.132577
0.961910 -0.193300 -0.193300
0.974805 -0.157727 -0.157727
0.961910 -0.193300 -0.193300
0.966207 -0.132577 -0.221058
0.984034 0.000000 -0.177981
0.974805 -0.157727 -0.157727
0.966207 -0.132577 -0.221058
0.984034 0.000000 -0.177981
0.966207 -0.132577 -0.221058
0.969957 0.000000 -0.243276
0.984034 0.000000 -0.177981
0.966207 0.132577 -0.221058
0.974805 0.157727 -0.157727
0.966207 0.132577 -0.221058
0.984034 0.000000 -0.177981
0.969957 0.000000 -0.243276
0.974805 0.157727 -0.157727
0.961910 0.193300 -0.193300
0.966207 0.221058 -0.132577
0.961910 0.193300 -0.193300
0.974805 0.157727 -0.157727
0.966207 0.132577 -0.221058
0.984034 -0.177981 0.000000
0.969957 -0.243276 0.000000
0.966207 -0.221058 -0.132577
0.984034 -0.177981 0.000000
0.966207 -0.221058 -0.132577
0.974805 -0.157727 -0.157727
1.000000 -0.000000 0.000000
0.984034 -0.177981 0.000000
0.974805 -0.157727 -0.157727
1.000000 -0.000000 0.000000
0.974805 -0.157727 -0.157727
0.984034 0.000000 -0.177981
1.000000 -0.000000 0.000000
0.974805 0.157727 -0.157727
0.984034 0.177981 -0.000000
0.974805 0.157727 -0.157727
1.000000 -0.000000 0.000000
0.984034 0.000000 -0.177981
0.984034 0.177981 -0.000000
0.966207 0.221058 -0.132577
0.969957 0.243276 -0.000000
0.966207 0.221058 -0.132577
0.984034 0.177981 -0.000000
0.974805 0.157727 -0.157727
0.966207 -0.221058 0.132577
0.984034 -0.177981 0.000000
0.974805 -0.157727 0.157727
0.984034 -0.177981 0.000000
0.966207 -0.221058 0.132577
0.969957 -0.243276 0.000000
0.974805 -0.157727 0.157727
1.000000 -0.000000 0.000000
0.984034 -0.000000 0.177981
1.000000 -0.000000 0.000000
0.974805 -0.157727 0.157727
0.984034 -0.177981 0.000000
0.974805 0.157727 0.157727
0.984034 -0.000000 0.177981
1.000000 -0.000000 0.000000
0.974805 0.157727 0.157727
1.000000 -0.000000 0.000000
0.984034 0.177981 -0.000000
0.966207 0.221058 0.132577
0.974805 0.157727 0.157727
0.984034 0.177981 -0.000000
0.966207 0.221058 0.132577
0.984034 0.177981 -0.000000
0.969957 0.243276 -0.000000
0.961910 -0.193300 0.193300
0.974805 -0.157727 0.157727
0.966207 -0.132577 0.221058
0.974805 -0.157727 0.157727
0.961910 -0.193300 0.193300
0.966207 -0.221058 0.132577
0.966207 -0.132577 0.221058
0.984034 -0.000000 0.177981
0.969957 -0.000000 0.243276
0.984034 -0.000000 0.177981
0.966207 -0.132577 0.221058
0.974805 -0.157727 0.157727
0.966207 0.132577 0.221058
0.969957 -0.000000 0.243276
0.984034 -0.000000 0.177981
0.966207 0.132577 0.221058
0.984034 -0.000000 0.177981
0.974805 0.157727 0.157727
0.961910 0.193300 0.193300
0.966207 0.132577 0.221058
0.974805 0.157727 0.157727
0.961910 0.193300 0.193300
0.974805 0.157727 0.157727
0.966207 0.221058 0.132577
0.157727 0.974805 -0.157727
0.221058 0.966207 -0.132577
0.193300 0.961910 -0.193300
0.157727 0.974805 -0.157727
0.193300 0.961910 -0.193300
0.132577 0.966207 -0.221058
0.000000 0.984034 -0.177981
0.157727 0.974805 -0.157727
0.132577 0.966207 -0.221058
0.000000 0.984034 -0.177981
0.132577 0.966207 -0.221058
0.000000 0.969957 -0.243276
0.000000 0.984034 -0.177981
-0.132577 0.966207 -0.221058
-0.157727 0.974805 -0.157727
-0.132577 0.966207 -0.221058
0.000000 0.984034 -0.177981
0.000000 0.969957 -0.243276
-0.157727 0.974805 -0.157727
-0.193300 0.961910 -0.193300
-0.221058 0.966207 -0.132577
-0.193300 0.961910 -0.193300
-0.157727 0.974805 -0.157727
-0.132577 0.966207 -0.221058
0.177981 0.984034 0.000000
0.243276 0.969957 0.000000
0.221058 0.966207 -0.132577
0.177981 0.984034 0.000000
0.221058 0.966207 -0.132577
0.157727 0.974805 -0.157727
0.000000 1.000000 0.000000
0.177981 0.984034 0.000000
0.157727 0.974805 -0.157727
0.000000 1.000000 0.000000
0.157727 0.974805 -0.157727
0.000000 0.984034 -0.177981
0.000000 1.000000 0.000000
-0.157727 0.974805 -0.157727
-0.177981 0.984034 -0.000000
-0.157727 0.974805 -0.157727
0.000000 1.000000 0.000000
0.000000 0.984034 -0.177981
-0.177981 0.984034 -0.000000
-0.221058 0.966207 -0.132577
-0.243276 0.969957 -0.000000
-0.221058 0.966207 -0.132577
-0.177981 0.984034 -0.000000
-0.157727 0.974805 -0.157727
0.221058 0.966207 0.132577
0.177981 0.984034 0.000000
0.157727 0.974805 0.157727
0.177981 0.984034 0.000000
0.221058 0.966207 0.132577
0.243276 0.969957 0.000000
0.157727 0.974805 0.157727
0.000000 1.000000 0.000000
0.000000 0.984034 0.177981
0.000000 1.000000 0.000000
0.157727 0.974805 0.157727
0.177981 0.984034 0.000000
-0.157727 0.974805 0.157727
0.000000 0.984034 0.177981
0.000000 1.000000 0.000000
-0.157727 0.974805 0.157727
0.000000 1.000000 0.000000
-0.177981 0.984034 -0.000000
-0.221058 0.966207 0.132577
-0.157727 0.974805 0.157727
-0.177981 0.984034 -0.000000
-0.221058 0.966207 0.132577
-0.177981 0.984034 -0.000000
-0.243276 0.969957 -0.000000
0.193300 0.961910 0.193300
0.157727 0.974805 0.157727
0.132577 0.966207 0.221058
0.157727 0.974805 0.157727
0.193300 0.961910 0.193300
0.221058 0.966207 0.132577
0.132577 0.966207 0.221058
0.000000 0.984034 0.177981
0.000000 0.969957 0.243276
0.000000 0.984034 0.177981
0.132577 0.966207 0.221058
0.157727 0.974805 0.157727
-0.132577 0.966207 0.221058
0.000000 0.969957 0.243276
0.000000 0.984034 0.177981
-0.132577 0.966207 0.221058
0.000000 0.984034 0.177981
-0.157727 0.974805 0.157727
-0.193300 0.961910 0.193300
-0.132577 0.966207 0.221058
-0.157727 0.974805 0.157727
-0.193300 0.961910 0.193300
-0.157727 0.974805 0.157727
-0.221058 0.966207 0.132577
-0.974805 0.157727 -0.157727
-0.966207 0.221058 -0.132577
-0.961910 0.193300 -0.193300
-0.974805 0.157727 -0.157727
-0.961910 0.193300 -0.193300
-0.966207 0.132577 -0.221058
-0.984034 0.000000 -0.177981
-0.974805 0.157727 -0.157727
-0.966207 0.132577 -0.221058
-0.984034 0.000000 -0.177981
-0.966207 0.132577 -0.221058
-0.969957 0.000000 -0.243276
-0.984034 0.000000 -0.177981
-0.966207 -0.132577 -0.221058
-0.974805 -0.157727 -0.157727
-0.966207 -0.132577 -0.221058
-0.984034 0.000000 -0.177981
-0.969957 0.000000 -0.243276
-0.974805 -0.157727 -0.157727
-0.961910 -0.193300 -0.193300
-0.966207 -0.221058 -0.132577
-0.961910 -0.193300 -0.193300
-0.974805 -0.157727 -0.157727
-0.966207 -0.132577 -0.221058
-0.984034 0.177981 0.000000
-0.969957 0.243276 0.000000
-0.966207 0.221058 -0.132577
-0.984034 0.177981 0.000000
-0.966207 0.221058 -0.132577
-0.974805 0.157727 -0.157727
-1.000000 0.000000 0.000000
-0.984034 0.177981 0.000000
-0.974805 0.157727 -0.157727
-1.000000 0.000000 0.000000
-0.974805 0.157727 -0.157727
-0.984034 0.000000 -0.177981
-1.000000 0.000000 0.000000
-0.974805 -0.157727 -0.157727
-0.984034 -0.177981 -0.000000
-0.974805 -0.157727 -0.157727
-1.000000 0.000000 0.000000
-0.984034 0.000000 -0.177981
-0.984034 -0.177981 -0.000000
-0.966207 -0.221058 -0.132577
-0.969957 -0.243276 -0.000000
-0.966207 -0.221058 -0.132577
-0.984034 -0.177981 -0.000000
-0.974805 -0.157727 -0.157727
-0.966207 0.221058 0.132577
-0.984034 0.177981 0.000000
-0.974805 0.157727 0.157727
-0.984034 0.177981 0.000000
-0.966207 0.221058 0.132577
-0.969957 0.243276 0.000000
-0.974805 0.157727 0.157727
-1.000000 0.000000 0.000000
-0.984034 0.000000 0.177981
-1.000000 0.000000 0.000000
-0.974805 0.157727 0.157727
-0.984034 0.177981 0.000000
-0.974805 -0.157727 0.157727
-0.984034 0.000000 0.177981
-1.000000 0.000000 0.000000
-0.974805 -0.157727 0.157727
-1.000000 0.000000 0.000000
-0.984034 -0.177981 -0.000000
-0.966207 -0.221058 0.132577
-0.974805 -0.157727 0.157727
-0.984034 -0.177981 -0.000000
-0.966207 -0.221058 0.132577
-0.984034 -0.177981 -0.000000
-0.969957 -0.243276 -0.000000
-0.961910 0.193300 0.193300
-0.974805 0.157727 0.157727
-0.966207 0.132577 0.221058
-0.974805 0.157727 0.157727
-0.961910 0.193300 0.193300
-0.966207 0.221058 0.132577
-0.966207 0.132577 0.221058
-0.984034 0.000000 0.177981
-0.969957 0.000000 0.243276
-0.984034 0.000000 0.177981
-0.966207 0.132577 0.221058
-0.974805 0.157727 0.157727
-0.966207 -0.132577 0.221058
-0.969957 0.000000 0.243276
-0.984034 0.000000 0.177981
-0.966207 -0.132577 0.221058
-0.984034 0.000000 0.177981
-0.974805 -0.157727 0.157727
-0.961910 -0.193300 0.193300
-0.966207 -0.132577 0.221058
-0.974805 -0.157727 0.157727
-0.961910 -0.193300 0.193300
-0.974805 -0.157727 0.157727
-0.966207 -0.221058 0.132577
</float_array>
          <technique_common>
            <accessor source="#Blocker-Normal0-array" count="576" stride="3">
              <param name="X" type="float"/>
              <param name="Y" type="float"/>
              <param name="Z" type="float"/>
            </accessor>
          </technique_common>
        </source>
        <source id="Blocker-UV0">
          <float_array id="Blocker-UV0-array" count="300">
0.956409 0.078626
0.976930 0.288153
0.764706 0.257392
0.748825 0.043539
0.981266 0.524952
0.767768 0.517496
0.960423 0.760872
0.746570 0.776754
0.925335 0.968456
0.715809 0.988978
0.505449 0.236194
0.512904 0.022696
0.495957 0.508005
0.486465 0.779816
0.479010 0.993313
0.245344 0.239255
0.276105 0.027031
0.224146 0.498513
0.227208 0.758617
0.243089 0.972470
0.031491 0.255137
0.066579 0.047553
0.010648 0.491057
0.014984 0.727857
0.035505 0.937383
0.949785 0.084064
0.970307 0.293590
0.758083 0.262830
0.742201 0.048977
0.974642 0.530390
0.761145 0.522934
0.953799 0.766310
0.739946 0.782192
0.918712 0.973894
0.709185 0.994416
0.498825 0.241631
0.506281 0.028134
0.489333 0.513442
0.479842 0.785254
0.472386 0.998751
0.238721 0.244693
0.269481 0.032469
0.217522 0.503951
0.220584 0.764055
0.236466 0.977908
0.024868 0.260575
0.059955 0.052991
0.004025 0.496495
0.008360 0.733294
0.028882 0.942821
0.033476 0.938104
0.012954 0.728577
0.225178 0.759338
0.241060 0.973191
0.484436 0.780536
0.476980 0.994034
0.744540 0.777475
0.713780 0.989699
0.958393 0.761593
0.923306 0.969177
0.008619 0.491778
0.222116 0.499234
0.493927 0.508725
0.765739 0.518217
0.979236 0.525673
0.029462 0.255858
0.243315 0.239976
0.503420 0.236914
0.762677 0.258113
0.974901 0.288873
0.064549 0.048274
0.274076 0.027752
0.510875 0.023417
0.746795 0.044260
0.954379 0.079347
0.962189 0.077782
0.982710 0.287309
0.770486 0.256548
0.754605 0.042695
0.987046 0.524108
0.069303 0.046134
0.278829 0.025613
0.248068 0.237837
0.034215 0.253719
0.515628 0.021277
0.773548 0.516653
0.966203 0.760029
0.752350 0.775910
0.931115 0.967613
0.721589 0.988134
0.508173 0.234775
0.751549 0.042121
0.767430 0.255974
0.959133 0.077208
0.979654 0.286734
0.511229 0.235350
0.226870 0.497094
0.972905 0.083905
0.993427 0.293431
0.781203 0.262670
0.765321 0.048817
0.997762 0.530230
0.784265 0.522775
0.976919 0.766151
0.763066 0.782032
0.941832 0.973735
0.732306 0.994256
0.521945 0.241472
0.529401 0.027974
0.512454 0.513283
0.502962 0.785094
0.495506 0.998592
0.261841 0.244534
0.292601 0.032310
0.240642 0.503791
0.243704 0.763896
0.259586 0.977749
0.047988 0.260415
0.083075 0.052831
0.027145 0.496336
0.031480 0.733135
0.052001 0.942661
0.518684 0.021852
0.501737 0.507161
0.492245 0.778972
0.484790 0.992470
0.251124 0.238411
0.281885 0.026188
0.229926 0.497669
0.232988 0.757774
0.248869 0.971627
0.037271 0.254293
0.072359 0.046709
0.016428 0.490214
0.020764 0.727013
0.041285 0.936539
0.013372 0.489639
0.498681 0.506586
0.770492 0.516078
0.983990 0.523534
0.229932 0.757199
0.017707 0.726438
0.489189 0.778397
0.749294 0.775335
0.963147 0.759454
0.245813 0.971052
0.038229 0.935965
0.481734 0.991895
0.718533 0.987560
0.928059 0.967038
</float_array>
          <technique_common>
            <accessor source="#Blocker-UV0-array" count="150" stride="2">
              <param name="S" type="float"/>
              <param name="T" type="float"/>
            </accessor>
          </technique_common>
        </source>
        <vertices id="Blocker-VERTEX">
          <input semantic="POSITION" source="#Blocker-POSITION"/>
        </vertices>
        <triangles count="192" material="ConstrainedWall">
          <input semantic="VERTEX" offset="0" source="#Blocker-VERTEX"/>
          <input semantic="NORMAL" offset="1" source="#Blocker-Normal0"/>
          <input semantic="TEXCOORD" offset="2" set="0" source="#Blocker-UV0"/>
          <p> 1 0 53 0 1 50 6 2 52 0 3 50 5 4 51 6 5 52 2 6 55 1 7 53 7 8 54 1 9 53 6 10 52 7 11 54 3 12 57 7 13 54 8 14 56 7 15 54 3 16 57 2 17 55 4 18 59 8 19 56 9 20 58 8 21 56 4 22 59 3 23 57 6 24 52 5 25 51 11 26 61 5 27 51 10 28 60 11 29 61 7 30 54 6 31 52 12 32 62 6 33 52 11 34 61 12 35 62 8 36 56 12 37 62 13 38 63 12 39 62 8 40 56 7 41 54 9 42 58 13 43 63 14 44 64 13 45 63 9 46 58 8 47 56 11 48 61 15 49 65 16 50 66 15 51 65 11 52 61 10 53 60 12 54 62 16 55 66 17 56 67 16 57 66 12 58 62 11 59 61 13 60 63 12 61 62 18 62 68 12 63 62 17 64 67 18 65 68 14 66 64 13 67 63 19 68 69 13 69 63 18 70 68 19 71 69 16 72 66 20 73 70 21 74 71 20 75 70 16 76 66 15 77 65 17 78 67 21 79 71 22 80 72 21 81 71 17 82 67 16 83 66 18 84 68 17 85 67 23 86 73 17 87 67 22 88 72 23 89 73 19 90 69 18 91 68 24 92 74 18 93 68 23 94 73 24 95 74 31 96 82 30 97 83 25 98 80 31 99 82 25 100 80 26 101 81 32 102 90 31 103 82 26 104 81 32 105 90 26 106 81 27 107 84 32 108 90 28 109 91 33 110 92 28 111 91 32 112 90 27 113 84 33 114 92 29 115 93 34 116 94 29 117 93 33 118 92 28 119 91 36 120 96 35 121 136 30 122 83 36 123 96 30 124 83 31 125 82 37 126 137 36 127 96 31 128 82 37 129 137 31 130 82 32 131 90 37 132 137 33 133 92 38 134 138 33 135 92 37 136 137 32 137 90 38 138 138 34 139 94 39 140 139 34 141 94 38 142 138 33 143 92 40 144 141 36 145 96 41 146 140 36 147 96 40 148 141 35 149 136 41 150 140 37 151 137 42 152 142 37 153 137 41 154 140 36 155 96 43 156 143 42 157 142 37 158 137 43 159 143 37 160 137 38 161 138 44 162 144 43 163 143 38 164 138 44 165 144 38 166 138 39 167 139 45 168 146 41 169 140 46 170 145 41 171 140 45 172 146 40 173 141 46 174 145 42 175 142 47 176 147 42 177 142 46 178 145 41 179 140 48 180 148 47 181 147 42 182 142 48 183 148 42 184 142 43 185 143 49 186 149 48 187 148 43 188 143 49 189 149 43 190 143 44 191 144 51 192 27 50 193 28 0 194 25 51 195 27 0 196 25 1 197 26 52 198 30 51 199 27 1 200 26 52 201 30 1 202 26 2 203 29 52 204 30 3 205 31 53 206 32 3 207 31 52 208 30 2 209 29 53 210 32 4 211 33 54 212 34 4 213 33 53 214 32 3 215 31 67 216 35 66 217 36 50 218 28 67 219 35 50 220 28 51 221 27 68 222 37 67 223 35 51 224 27 68 225 37 51 226 27 52 227 30 68 228 37 53 229 32 69 230 38 53 231 32 68 232 37 52 233 30 69 234 38 54 235 34 70 236 39 54 237 34 69 238 38 53 239 32 82 240 41 67 241 35 83 242 40 67 243 35 82 244 41 66 245 36 83 246 40 68 247 37 84 248 42 68 249 37 83 250 40 67 251 35 85 252 43 84 253 42 68 254 37 85 255 43 68 256 37 69 257 38 86 258 44 85 259 43 69 260 38 86 261 44 69 262 38 70 263 39 25 264 46 83 265 40 26 266 45 83 267 40 25 268 46 82 269 41 26 270 45 84 271 42 27 272 47 84 273 42 26 274 45 83 275 40 28 276 48 27 277 47 84 278 42 28 279 48 84 280 42 85 281 43 29 282 49 28 283 48 85 284 43 29 285 49 85 286 43 86 287 44 55 288 99 54 289 100 4 290 97 55 291 99 4 292 97 9 293 98 56 294 102 55 295 99 9 296 98 56 297 102 9 298 98 14 299 101 56 300 102 19 301 103 57 302 104 19 303 103 56 304 102 14 305 101 57 306 104 24 307 105 58 308 106 24 309 105 57 310 104 19 311 103 71 312 107 70 313 108 54 314 100 71 315 107 54 316 100 55 317 99 72 318 109 71 319 107 55 320 99 72 321 109 55 322 99 56 323 102 72 324 109 57 325 104 73 326 110 57 327 104 72 328 109 56 329 102 73 330 110 58 331 106 74 332 111 58 333 106 73 334 110 57 335 104 86 336 113 71 337 107 87 338 112 71 339 107 86 340 113 70 341 108 87 342 112 72 343 109 88 344 114 72 345 109 87 346 112 71 347 107 89 348 115 88 349 114 72 350 109 89 351 115 72 352 109 73 353 110 90 354 116 89 355 115 73 356 110 90 357 116 73 358 110 74 359 111 29 360 118 87 361 112 34 362 117 87 363 112 29 364 118 86 365 113 34 366 117 88 367 114 39 368 119 88 369 114 34 370 117 87 371 112 44 372 120 39 373 119 88 374 114 44 375 120 88 376 114 89 377 115 49 378 121 44 379 120 89 380 115 49 381 121 89 382 115 90 383 116 59 384 77 58 385 78 24 386 75 59 387 77 24 388 75 23 389 76 60 390 85 59 391 77 23 392 76 60 393 85 23 394 76 22 395 79 60 396 85 21 397 86 61 398 87 21 399 86 60 400 85 22 401 79 61 402 87 20 403 88 62 404 89 20 405 88 61 406 87 21 407 86 75 408 95 74 409 122 58 410 78 75 411 95 58 412 78 59 413 77 76 414 123 75 415 95 59 416 77 76 417 123 59 418 77 60 419 85 76 420 123 61 421 87 77 422 124 61 423 87 76 424 123 60 425 85 77 426 124 62 427 89 78 428 125 62 429 89 77 430 124 61 431 87 90 432 127 75 433 95 91 434 126 75 435 95 90 436 127 74 437 122 91 438 126 76 439 123 92 440 128 76 441 123 91 442 126 75 443 95 93 444 129 92 445 128 76 446 123 93 447 129 76 448 123 77 449 124 94 450 130 93 451 129 77 452 124 94 453 130 77 454 124 78 455 125 49 456 132 91 457 126 48 458 131 91 459 126 49 460 132 90 461 127 48 462 131 92 463 128 47 464 133 92 465 128 48 466 131 91 467 126 46 468 134 47 469 133 92 470 128 46 471 134 92 472 128 93 473 129 45 474 135 46 475 134 93 476 129 45 477 135 93 478 129 94 479 130 63 480 2 62 481 3 20 482 0 63 483 2 20 484 0 15 485 1 64 486 5 63 487 2 15 488 1 64 489 5 15 490 1 10 491 4 64 492 5 5 493 6 65 494 7 5 495 6 64 496 5 10 497 4 65 498 7 0 499 8 50 500 9 0 501 8 65 502 7 5 503 6 79 504 10 78 505 11 62 506 3 79 507 10 62 508 3 63 509 2 80 510 12 79 511 10 63 512 2 80 513 12 63 514 2 64 515 5 80 516 12 65 517 7 81 518 13 65 519 7 80 520 12 64 521 5 81 522 13 50 523 9 66 524 14 50 525 9 81 526 13 65 527 7 94 528 16 79 529 10 95 530 15 79 531 10 94 532 16 78 533 11 95 534 15 80 535 12 96 536 17 80 537 12 95 538 15 79 539 10 97 540 18 96 541 17 80 542 12 97 543 18 80 544 12 81 545 13 82 546 19 97 547 18 81 548 13 82 549 19 81 550 13 66 551 14 45 552 21 95 553 15 40 554 20 95 555 15 45 556 21 94 557 16 40 558 20 96 559 17 35 560 22 96 561 17 40 562 20 95 563 15 30 564 23 35 565 22 96 566 17 30 567 23 96 568 17 97 569 18 25 570 24 30 571 23 97 572 18 25 573 24 97 574 18 82 575 19</p>
        </triangles>
      </mesh>
    </geometry>
  </library_geometries>
  <library_visual_scenes>
    <visual_scene id="Blocker" name="Blocker">
      <node name="Blocker" id="Blocker" layer="PBR_Blocker" sid="Blocker">
        <matrix sid="matrix">1.000000 0.000000 0.000000 0.000000 0.000000 1.000000 0.000000 0.000000 0.000000 0.000000 1.000000 0.000000 0.000000 0.000000 0.000000 1.000000</matrix>
        <instance_geometry url="#Blocker-lib">
          <bind_material>
            <technique_common>
              <instance_material symbol="ConstrainedWall" target="#ConstrainedWall"/>
            </technique_common>
          </bind_material>
        </instance_geometry>
        <extra>
          <technique profile="FCOLLADA">
            <visibility>1.000000</visibility>
          </technique>
        </extra>
      </node>
      <extra>
        <technique profile="MAX3D">
          <frame_rate>30.000000</frame_rate>
        </technique>
        <technique profile="FCOLLADA">
          <start_time>0.000000</start_time>
          <end_time>3.333333</end_time>
        </technique>
      </extra>
    </visual_scene>
  </library_visual_scenes>
  <scene>
    <instance_visual_scene url="#Blocker"/>
  </scene>
</COLLADA>
