<?xml version="1.0" encoding="utf-8"?>
<COLLADA xmlns="http://www.collada.org/2005/11/COLLADASchema" version="1.4.1" xmlns:xsi="http://www.w3.org/2001/XMLSchema-instance">
  <asset>
    <contributor>
      <author>Blender User</author>
      <authoring_tool>Blender 4.3.2 commit date:2024-12-16, commit time:21:10, hash:32f5fdce0a0a</authoring_tool>
    </contributor>
    <created>2026-04-22T20:44:09</created>
    <modified>2026-04-22T20:44:09</modified>
    <unit name="meter" meter="1"/>
    <up_axis>Z_UP</up_axis>
  </asset>
  <library_images/>
  <library_geometries>
    <geometry id="五楼部分仿真-mesh" name="五楼部分仿真">
      <mesh>
        <source id="五楼部分仿真-mesh-positions">
          <float_array id="五楼部分仿真-mesh-positions-array" count="168">1000 1220 0 1010 1210 0 0 1220 0 9.999991 1210 0 0 0 0 9.999991 10.00002 0 220 0 0 210 10.00002 0 220 1000 0 210 1010 0 1000 1000 0 1010 1010 0 1000 450 0 1010 460 0 1150 450 0 1140 460 0 1150 1000 0 1140 1010 0 1520 1000 0 1510 1010 0 1520 1450 0 1510 1460 0 1820 1450 0 1810 1460 0 1820 1620 0 1810 1610 0 1000 1620 0 1010 1610 0 1520 1450 210 1520 1000 210 1820 1450 210 1820 1620 210 1000 1620 210 1000 1220 210 0 1220 210 0 0 210 220 0 210 220 1000 210 1000 1000 210 1000 450 210 1150 450 210 1150 1000 210 1140 1010 200 1510 1010 200 1510 1460 200 1810 1460 200 1810 1610 200 1010 1610 200 1010 1210 200 9.999991 1210 200 9.999991 10.00002 200 210 10.00002 200 210 1010 200 1010 1010 200 1010 460 200 1140 460 200</float_array>
          <technique_common>
            <accessor source="#五楼部分仿真-mesh-positions-array" count="56" stride="3">
              <param name="X" type="float"/>
              <param name="Y" type="float"/>
              <param name="Z" type="float"/>
            </accessor>
          </technique_common>
        </source>
        <source id="五楼部分仿真-mesh-normals">
          <float_array id="五楼部分仿真-mesh-normals-array" count="324">0 0 -1 0 0 -1 0 0 -1 0 0 -1 0 0 -1 0 0 -1 0 0 -1 0 0 -1 0 0 -1 0 0 -1 0 0 -1 0 0 -1 0 0 -1 0 0 -1 0 0 -1 0 0 -1 0 0 -1 0 0 -1 0 0 -1 0 0 -1 0 0 -1 0 0 -1 0 0 -1 0 0 -1 0 0 -1 0 0 -1 0 0 -1 0 0 -1 -1 0 0 -1 0 0 0 1 0 0 1 0 -1 0 0 -1 0 0 0 -1 0 0 -1 0 1 0 0 1 0 0 0 -1 0 0 -1 0 1 0 0 1 0 0 0 1 0 0 1 0 -1 0 0 -1 0 0 0 1 0 0 1 0 1 0 0 1 0 0 0 1 0 0 1 0 -1 0 0 -1 0 0 0 1 0 0 1 0 0 1 0 0 1 0 -1 0 0 -1 0 0 0 1 0 0 1 0 -1 0 0 -1 0 0 0 -1 0 0 -1 0 1 0 0 1 0 0 0 -1 0 0 -1 0 1 0 0 1 0 0 0 1 0 0 1 0 -1 0 0 -1 0 0 0 1 0 0 1 0 1 0 0 1 0 0 0 1 0 0 1 0 -1 0 0 -1 0 0 0 0 -1 0 0 -1 0 0 -1 0 0 -1 0 0 -1 0 0 -1 0 0 -1 0 0 -1 0 0 -1 0 0 -1 0 0 -1 0 0 -1 0 0 -1 0 0 -1 0 0 -1 0 0 -1 0 0 -1 0 0 -1 0 0 -1 0 0 -1 0 0 -1 0 0 -1 0 0 -1 0 0 -1</float_array>
          <technique_common>
            <accessor source="#五楼部分仿真-mesh-normals-array" count="108" stride="3">
              <param name="X" type="float"/>
              <param name="Y" type="float"/>
              <param name="Z" type="float"/>
            </accessor>
          </technique_common>
        </source>
        <vertices id="五楼部分仿真-mesh-vertices">
          <input semantic="POSITION" source="#五楼部分仿真-mesh-positions"/>
        </vertices>
        <triangles count="108">
          <input semantic="VERTEX" source="#五楼部分仿真-mesh-vertices" offset="0"/>
          <input semantic="NORMAL" source="#五楼部分仿真-mesh-normals" offset="1"/>
          <p>0 0 1 0 2 0 2 1 1 1 3 1 2 2 3 2 4 2 4 3 3 3 5 3 4 4 5 4 6 4 6 5 5 5 7 5 6 6 7 6 8 6 8 7 7 7 9 7 8 8 9 8 10 8 10 9 9 9 11 9 10 10 11 10 12 10 12 11 11 11 13 11 12 12 13 12 14 12 14 13 13 13 15 13 14 14 15 14 16 14 16 15 15 15 17 15 16 16 17 16 18 16 18 17 17 17 19 17 18 18 19 18 20 18 20 19 19 19 21 19 20 20 21 20 22 20 22 21 21 21 23 21 22 22 23 22 24 22 24 23 23 23 25 23 24 24 25 24 26 24 26 25 25 25 27 25 26 26 27 26 0 26 0 27 27 27 1 27 28 28 20 28 29 28 20 29 18 29 29 29 30 30 22 30 28 30 22 31 20 31 28 31 31 32 24 32 30 32 24 33 22 33 30 33 32 34 26 34 31 34 26 35 24 35 31 35 33 36 0 36 32 36 0 37 26 37 32 37 34 38 2 38 33 38 2 39 0 39 33 39 35 40 4 40 34 40 4 41 2 41 34 41 36 42 6 42 35 42 6 43 4 43 35 43 37 44 8 44 36 44 8 45 6 45 36 45 38 46 10 46 37 46 10 47 8 47 37 47 39 48 12 48 38 48 12 49 10 49 38 49 40 50 14 50 39 50 14 51 12 51 39 51 41 52 16 52 40 52 16 53 14 53 40 53 29 54 18 54 41 54 18 55 16 55 41 55 42 56 43 56 17 56 17 57 43 57 19 57 43 58 44 58 19 58 19 59 44 59 21 59 44 60 45 60 21 60 21 61 45 61 23 61 45 62 46 62 23 62 23 63 46 63 25 63 46 64 47 64 25 64 25 65 47 65 27 65 47 66 48 66 27 66 27 67 48 67 1 67 48 68 49 68 1 68 1 69 49 69 3 69 49 70 50 70 3 70 3 71 50 71 5 71 50 72 51 72 5 72 5 73 51 73 7 73 51 74 52 74 7 74 7 75 52 75 9 75 52 76 53 76 9 76 9 77 53 77 11 77 53 78 54 78 11 78 11 79 54 79 13 79 54 80 55 80 13 80 13 81 55 81 15 81 55 82 42 82 15 82 15 83 42 83 17 83 48 84 47 84 44 84 44 85 47 85 46 85 44 86 46 86 45 86 54 87 53 87 55 87 55 88 53 88 42 88 51 89 50 89 52 89 52 90 50 90 49 90 52 91 49 91 53 91 53 92 49 92 48 92 53 93 48 93 42 93 42 94 48 94 44 94 42 95 44 95 43 95 35 96 34 96 36 96 34 97 37 97 36 97 34 98 33 98 37 98 28 99 31 99 30 99 29 100 41 100 28 100 41 101 38 101 28 101 41 102 40 102 38 102 40 103 39 103 38 103 37 104 33 104 38 104 33 105 28 105 38 105 33 106 32 106 28 106 32 107 31 107 28 107</p>
        </triangles>
      </mesh>
    </geometry>
  </library_geometries>
  <library_controllers/>
  <library_visual_scenes>
    <visual_scene id="Scene" name="Scene">
      <node id="五楼部分仿真" name="五楼部分仿真" type="NODE">
        <matrix sid="transform">0.01 0 0 0 0 0.01 0 0 0 0 0.01 0 0 0 0 1</matrix>
        <instance_geometry url="#五楼部分仿真-mesh" name="五楼部分仿真"/>
      </node>
    </visual_scene>
  </library_visual_scenes>
  <scene>
    <instance_visual_scene url="#Scene"/>
  </scene>
</COLLADA>